<svg width="50" height="25" viewBox="0 0 50 25" fill="none" xmlns="http://www.w3.org/2000/svg">
<path d="M47.867 5.15151L30.4684 0.404536C27.6035 -0.373053 24.5495 -0.0212361 21.9364 1.38739L14.2827 5.56974L3.13676 7.66092C2.30845 7.6609 1.51376 7.9885 0.926097 8.57225C0.338438 9.15599 0.00552207 9.94847 0 10.7768L0 17.0503C0 17.8822 0.330479 18.6801 0.918737 19.2683C1.50699 19.8566 2.30484 20.1871 3.13676 20.1871H5.22794C5.43347 21.3999 6.06177 22.5008 7.00148 23.2947C7.94119 24.0886 9.13162 24.5241 10.3618 24.5241C11.5919 24.5241 12.7824 24.0886 13.7221 23.2947C14.6618 22.5008 15.2901 21.3999 15.4956 20.1871H34.5044C34.7099 21.3999 35.3382 22.5008 36.2779 23.2947C37.2176 24.0886 38.4081 24.5241 39.6382 24.5241C40.8684 24.5241 42.0588 24.0886 42.9985 23.2947C43.9382 22.5008 44.5665 21.3999 44.7721 20.1871H46.8632C47.6952 20.1871 48.493 19.8566 49.0813 19.2683C49.6695 18.6801 50 17.8822 50 17.0503V8.07915C49.9908 7.4305 49.7808 6.80064 49.3988 6.27633C49.0168 5.75201 48.4816 5.35903 47.867 5.15151ZM37.6412 4.54506V5.54883H36.1773L35.3618 3.8968L37.6412 4.54506ZM23.0029 3.24853C25.0147 2.17503 27.3461 1.86319 29.5692 2.37024H29.9875H30.343L32.7269 3.01851L33.8979 5.38153H18.8206L23.0029 3.24853ZM10.4559 22.4246C9.83548 22.4246 9.22902 22.2406 8.71318 21.896C8.19735 21.5513 7.7953 21.0614 7.55789 20.4882C7.32047 19.9151 7.25835 19.2844 7.37939 18.6759C7.50042 18.0674 7.79917 17.5085 8.23785 17.0698C8.67653 16.6311 9.23545 16.3324 9.84392 16.2114C10.4524 16.0903 11.0831 16.1524 11.6563 16.3899C12.2294 16.6273 12.7193 17.0293 13.064 17.5452C13.4087 18.061 13.5926 18.6675 13.5926 19.2878C13.5926 20.1198 13.2622 20.9176 12.6739 21.5059C12.0856 22.0941 11.2878 22.4246 10.4559 22.4246ZM39.7323 22.4246C39.1119 22.4246 38.5055 22.2406 37.9896 21.896C37.4738 21.5513 37.0718 21.0614 36.8343 20.4882C36.5969 19.9151 36.5348 19.2844 36.6558 18.6759C36.7769 18.0674 37.0756 17.5085 37.5143 17.0698C37.953 16.6311 38.5119 16.3324 39.1204 16.2114C39.7289 16.0903 40.3595 16.1524 40.9327 16.3899C41.5059 16.6273 41.9958 17.0293 42.3405 17.5452C42.6851 18.061 42.8691 18.6675 42.8691 19.2878C42.8691 20.1198 42.5386 20.9176 41.9504 21.5059C41.3621 22.0941 40.5643 22.4246 39.7323 22.4246ZM48.097 11.8224H47.0514C46.7741 11.8224 46.5082 11.9325 46.3121 12.1286C46.116 12.3247 46.0059 12.5906 46.0059 12.8679C46.0059 13.1452 46.116 13.4112 46.3121 13.6073C46.5082 13.8034 46.7741 13.9135 47.0514 13.9135H48.097V17.0503C48.097 17.3276 47.9869 17.5935 47.7908 17.7896C47.5947 17.9857 47.3288 18.0959 47.0514 18.0959H44.8139C44.5471 16.9511 43.9007 15.9302 42.98 15.1994C42.0592 14.4686 40.9183 14.0708 39.7428 14.0708C38.5673 14.0708 37.4263 14.4686 36.5056 15.1994C35.5849 15.9302 34.9385 16.9511 34.6717 18.0959H15.5374C15.2706 16.9511 14.6242 15.9302 13.7035 15.1994C12.7828 14.4686 11.6418 14.0708 10.4663 14.0708C9.29082 14.0708 8.14989 14.4686 7.22916 15.1994C6.30843 15.9302 5.66207 16.9511 5.39523 18.0959H3.13676C2.85946 18.0959 2.59351 17.9857 2.39742 17.7896C2.20134 17.5935 2.09118 17.3276 2.09118 17.0503V13.9135H3.13676C3.41407 13.9135 3.68002 13.8034 3.87611 13.6073C4.07219 13.4112 4.18235 13.1452 4.18235 12.8679C4.18235 12.5906 4.07219 12.3247 3.87611 12.1286C3.68002 11.9325 3.41407 11.8224 3.13676 11.8224H2.09118V10.7768C2.09897 10.6246 2.13747 10.4756 2.20438 10.3387C2.27128 10.2018 2.36519 10.0798 2.48047 9.98021C2.59574 9.88056 2.72998 9.80528 2.87512 9.75889C3.02025 9.7125 3.17327 9.69596 3.32497 9.71027L14.6382 7.64H38.6867C38.9641 7.64 39.23 7.52984 39.4261 7.33376C39.6222 7.13767 39.7323 6.87172 39.7323 6.59442V5.10968L47.3233 7.20086C47.5252 7.25338 47.7067 7.36507 47.8446 7.52159C47.9825 7.6781 48.0704 7.87228 48.097 8.07915V11.8224ZM32.4132 13.9135H17.775C17.4977 13.9135 17.2317 14.0237 17.0356 14.2198C16.8396 14.4159 16.7294 14.6818 16.7294 14.9591C16.7294 15.2364 16.8396 15.5024 17.0356 15.6985C17.2317 15.8945 17.4977 16.0047 17.775 16.0047H32.4132C32.6905 16.0047 32.9565 15.8945 33.1526 15.6985C33.3486 15.5024 33.4588 15.2364 33.4588 14.9591C33.4588 14.6818 33.3486 14.4159 33.1526 14.2198C32.9565 14.0237 32.6905 13.9135 32.4132 13.9135Z" fill="white"/>
</svg>
