<svg width="51" height="50" viewBox="0 0 51 50" fill="none" xmlns="http://www.w3.org/2000/svg">
<path d="M0.790058 21.5497H2.99255C2.99255 31.0145 2.99255 38.8224 2.99255 48.1504C2.99255 49.1703 3.8217 50 4.84117 50H6.39196C7.41194 50 8.24161 49.1703 8.24161 48.1504V43.9748H24.0376C24.4738 43.9748 24.8277 43.6209 24.8277 43.1847V27.31H42.3216V48.1504C42.3216 49.1703 43.1508 50 44.1702 50H45.721C46.741 50 47.5707 49.1703 47.5707 48.1504C47.5707 38.6583 47.5707 31.4544 47.5707 21.5497H49.7737C50.2099 21.5497 50.5637 21.1958 50.5637 20.7596V17.0907C50.5637 16.6545 50.2099 16.3006 49.7737 16.3006H29.047V0.790058C29.047 0.331254 28.6497 -0.0245841 28.2173 0.00308617C26.1319 0.00276898 35.7457 0.00423166 7.93505 0C7.49887 0 7.14499 0.35388 7.14499 0.790058V16.3006H0.790058C0.35388 16.3006 0 16.6545 0 17.0907V20.7596C0 21.1958 0.35388 21.5497 0.790058 21.5497ZM24.4913 21.5497V25.7299C1.26785 25.7291 29.0956 25.7294 4.57267 25.7294V21.5497H24.4913ZM6.66149 48.1504C6.66149 48.299 6.54061 48.4199 6.39196 48.4199H4.84117C4.69303 48.4199 4.57267 48.299 4.57267 48.1504V27.31H6.66149C6.66149 31.8364 6.66149 40.3976 6.66149 48.1504ZM23.2476 42.3947H8.24161V27.31H23.2476V42.3947ZM45.721 48.4199H44.1702C44.0221 48.4199 43.9017 48.299 43.9017 48.1504V27.31H45.9906V48.1504C45.9906 48.299 45.8697 48.4199 45.721 48.4199ZM45.9906 25.7294C43.5729 25.7294 26.1895 25.7299 26.0714 25.7299V21.5497H45.9906V25.7294ZM27.4669 1.5832V16.3006H22.2744V1.5832H27.4669ZM20.6933 16.3006H15.4992V1.58012H20.6933V16.3006ZM8.72511 1.58012H13.9191V16.3006H8.72511V1.58012ZM1.58012 17.8807H48.9836V19.9695H1.58012V17.8807Z" fill="white"/>
</svg>
