<svg width="20" height="20" viewBox="0 0 20 20" fill="none" xmlns="http://www.w3.org/2000/svg">
<path d="M19.5 1.12355e-07H0.49939C0.22345 0.000183212 -0.000182988 0.223999 1.12355e-07 0.5V19.5005C0.000183212 19.7766 0.223999 20.0002 0.5 20H7.50061C7.77655 19.9998 8.00018 19.776 8 19.5V8H19.5006C19.7766 7.99982 20.0002 7.776 20 7.5V0.49939C19.9998 0.22345 19.776 -0.000182988 19.5 1.12355e-07ZM19 7H15.5V4.5C15.5 4.22388 15.2761 4 15 4C14.7239 4 14.5 4.22388 14.5 4.5V7H11.5V4.5C11.5 4.22388 11.2761 4 11 4C10.7239 4 10.5 4.22388 10.5 4.5V7H8V4.5C8 4.22388 7.77612 4 7.5 4C7.22388 4 7 4.22388 7 4.5V7H4.5C4.22388 7 4 7.22388 4 7.5C4 7.77612 4.22388 8 4.5 8H7V10.5H4.5C4.22388 10.5 4 10.7239 4 11C4 11.2761 4.22388 11.5 4.5 11.5H7V14.5H4.5C4.22388 14.5 4 14.7239 4 15C4 15.2761 4.22388 15.5 4.5 15.5H7V19H1V1H19V7Z" fill="#181818"/>
</svg>
