<?xml version="1.0" encoding="UTF-8"?>
<svg id="Layer_1" xmlns="http://www.w3.org/2000/svg" version="1.1" xmlns:xlink="http://www.w3.org/1999/xlink" viewBox="0 0 1920 1080">
  <!-- Generator: Adobe Illustrator 30.0.0, SVG Export Plug-In . SVG Version: 2.1.1 Build 123)  -->
  <defs>
    <style>
      .st0 {
        fill: none;
        stroke: #3f5b91;
        stroke-miterlimit: 10;
        stroke-width: 2px;
      }

      .st1 {
        fill: url(#linear-gradient);
      }
    </style>
    <linearGradient id="linear-gradient" x1="-1940.52" y1="-656.11" x2="-1942.22" y2="360.27" gradientUnits="userSpaceOnUse">
      <stop offset="0" stop-color="#000"/>
      <stop offset=".93" stop-color="#d5d5d5" stop-opacity=".16"/>
      <stop offset="1" stop-color="#fff" stop-opacity="0"/>
    </linearGradient>
  </defs>
  <g>
    <g>
      <rect class="st0" x="1594.54" y="687.74" width="12.11" height="135.8"/>
      <path class="st0" d="M1594.54,950.95v26.12h-28.04v-237.86h-12.11v102.98h-18.84c-10.78,0-19.55,8.68-19.55,19.35v36.81h38.38v90.83h90.9v-12.11h-38.64v-26.12c0-6.07,4.94-11.01,11.01-11.01h27.63v-12.11h-27.63c-12.75,0-23.12,10.37-23.12,23.12ZM1554.17,886.24h-26.06v-24.7c0-3.99,3.34-7.24,7.44-7.24h18.62v31.94Z"/>
      <path class="st0" d="M1617.53,853.66h14.01v-12.11h-14.01c-12.75,0-23.12,10.37-23.12,23.12v21.58h-9.08v12.11h46.21v-12.11h-25.01v-21.58c0-6.07,4.94-11.01,11.01-11.01Z"/>
      <path class="st0" d="M1516,965.12c0,6.58-5.36,11.94-11.94,11.94h-17.61v12.11h17.61c13.26,0,24.05-10.79,24.05-24.05v-50.52h-12.11v50.52Z"/>
      <rect class="st0" x="1475.22" y="744.31" width="12.11" height="135.8"/>
      <path class="st0" d="M1487.33,616.89v-26.12h28.04v237.86h12.11v-102.98h18.84c10.78,0,19.55-8.68,19.55-19.35v-36.81h-38.38v-90.83h-90.9v12.11h38.64v26.12c0,6.07-4.94,11.01-11.01,11.01h-27.63v12.11h27.63c12.75,0,23.12-10.37,23.12-23.12ZM1527.69,681.6h26.06v24.7c0,3.99-3.34,7.24-7.44,7.24h-18.62v-31.94Z"/>
      <path class="st0" d="M1487.45,681.6h9.08v-12.11h-46.21v12.11h25.01v21.58c0,6.07-4.94,11.01-11.01,11.01h-14.01v12.11h14.01c12.75,0,23.12-10.37,23.12-23.12v-21.58Z"/>
      <path class="st0" d="M1565.86,602.72c0-6.58,5.36-11.94,11.94-11.94h17.61v-12.11h-17.61c-13.26,0-24.05,10.79-24.05,24.05v50.52h12.11v-50.52Z"/>
      <rect class="st0" x="1752.37" y="552.86" width="12.11" height="135.8"/>
      <path class="st0" d="M1775.49,805.06h27.63v-12.11h-27.63c-12.75,0-23.12,10.37-23.12,23.12v26.12h-28.04v-237.86h-12.11v102.98h-18.84c-10.78,0-19.55,8.68-19.55,19.35v36.81h38.38v90.82h90.9v-12.11h-38.64v-26.12c0-6.07,4.94-11.01,11.01-11.01ZM1712.01,751.36h-26.06v-24.7c0-3.99,3.34-7.24,7.44-7.24h18.62v31.94Z"/>
      <path class="st0" d="M1752.25,729.79v21.58h-9.08v12.11h46.21v-12.11h-25.01v-21.58c0-6.07,4.94-11.01,11.01-11.01h14.01v-12.11h-14.01c-12.75,0-23.12,10.37-23.12,23.12Z"/>
      <path class="st0" d="M1673.83,830.25c0,6.58-5.36,11.94-11.94,11.94h-17.61v12.11h17.61c13.26,0,24.05-10.79,24.05-24.05v-50.52h-12.11v50.52Z"/>
      <rect class="st0" x="1633.05" y="609.43" width="12.11" height="135.8"/>
      <path class="st0" d="M1645.16,482.02v-26.12h28.04v237.86h12.11v-102.98h18.84c10.78,0,19.55-8.68,19.55-19.35v-36.81h-38.38v-90.83h-90.9v12.11h38.64v26.12c0,6.07-4.94,11.01-11.01,11.01h-27.63v12.11h27.63c12.75,0,23.12-10.37,23.12-23.12ZM1685.53,546.73h26.06v24.7c0,3.99-3.34,7.24-7.44,7.24h-18.62v-31.94Z"/>
      <path class="st0" d="M1645.28,546.73h9.08v-12.11h-46.21v12.11h25.01v21.58c0,6.07-4.94,11.01-11.01,11.01h-14.01v12.11h14.01c12.75,0,23.12-10.37,23.12-23.12v-21.58Z"/>
      <path class="st0" d="M1723.7,467.84c0-6.58,5.36-11.94,11.94-11.94h17.61v-12.11h-17.61c-13.26,0-24.05,10.79-24.05,24.05v50.52h12.11v-50.52Z"/>
      <rect class="st0" x="1436.7" y="778.57" width="12.11" height="135.8"/>
      <path class="st0" d="M1436.7,1041.77v26.12h-28.04v-237.86h-12.11v102.98h-18.84c-10.78,0-19.55,8.68-19.55,19.35v36.81h38.38v90.83h90.9v-12.11h-38.64v-26.12c0-6.07,4.94-11.01,11.01-11.01h27.63v-12.11h-27.63c-12.75,0-23.12,10.37-23.12,23.12ZM1396.34,977.06h-26.06v-24.7c0-3.99,3.34-7.24,7.44-7.24h18.62v31.94Z"/>
      <path class="st0" d="M1459.7,944.48h14.01v-12.11h-14.01c-12.75,0-23.12,10.37-23.12,23.12v21.58h-9.08v12.11h46.21v-12.11h-25.01v-21.58c0-6.07,4.94-11.01,11.01-11.01Z"/>
      <path class="st0" d="M1358.17,1055.95c0,6.58-5.36,11.94-11.94,11.94h-17.61v12.11h17.61c13.26,0,24.05-10.79,24.05-24.05v-50.52h-12.11v50.52Z"/>
      <rect class="st0" x="1317.39" y="835.13" width="12.11" height="135.8"/>
      <path class="st0" d="M1329.5,707.72v-26.12h28.04v237.86h12.11v-102.98h18.84c10.78,0,19.55-8.68,19.55-19.35v-36.81h-38.38v-90.83h-90.9v12.11h38.64v26.12c0,6.07-4.94,11.01-11.01,11.01h-27.63v12.11h27.63c12.75,0,23.12-10.37,23.12-23.12ZM1369.86,772.43h26.06v24.7c0,3.99-3.34,7.24-7.44,7.24h-18.62v-31.94Z"/>
      <path class="st0" d="M1329.61,794v-21.58h9.08v-12.11h-46.21v12.11h25.01v21.58c0,6.07-4.94,11.01-11.01,11.01h-14.01v12.11h14.01c12.75,0,23.12-10.37,23.12-23.12Z"/>
      <path class="st0" d="M1408.03,693.54c0-6.58,5.36-11.94,11.94-11.94h17.61v-12.11h-17.61c-13.26,0-24.05,10.79-24.05,24.05v50.52h12.11v-50.52Z"/>
    </g>
    <g>
      <rect class="st0" x="1527.03" y="254.72" width="12.11" height="135.8"/>
      <path class="st0" d="M1527.03,517.93v26.12h-28.04v-237.86h-12.11v102.98h-18.84c-10.78,0-19.55,8.68-19.55,19.35v36.81h38.38v90.83h90.9v-12.11h-38.64v-26.12c0-6.07,4.94-11.01,11.01-11.01h27.63v-12.11h-27.63c-12.75,0-23.12,10.37-23.12,23.12ZM1486.67,453.22h-26.06v-24.7c0-3.99,3.34-7.24,7.44-7.24h18.62v31.94Z"/>
      <path class="st0" d="M1550.03,420.64h14.01v-12.11h-14.01c-12.75,0-23.12,10.37-23.12,23.12v21.58h-9.08v12.11h46.21v-12.11h-25.01v-21.58c0-6.07,4.94-11.01,11.01-11.01Z"/>
      <path class="st0" d="M1448.5,532.1c0,6.58-5.36,11.94-11.94,11.94h-17.61v12.11h17.61c13.26,0,24.05-10.79,24.05-24.05v-50.52h-12.11v50.52Z"/>
      <rect class="st0" x="1407.72" y="311.28" width="12.11" height="135.8"/>
      <path class="st0" d="M1419.83,183.87v-26.12h28.04v237.86h12.11v-102.98h18.84c10.78,0,19.55-8.68,19.55-19.35v-36.81h-38.38v-90.83h-90.9v12.11h38.64v26.12c0,6.07-4.94,11.01-11.01,11.01h-27.63v12.11h27.63c12.75,0,23.12-10.37,23.12-23.12ZM1460.19,248.58h26.06v24.7c0,3.99-3.34,7.24-7.44,7.24h-18.62v-31.94Z"/>
      <path class="st0" d="M1419.94,248.58h9.08v-12.11h-46.21v12.11h25.01v21.58c0,6.07-4.94,11.01-11.01,11.01h-14.01v12.11h14.01c12.75,0,23.12-10.37,23.12-23.12v-21.58Z"/>
      <path class="st0" d="M1498.36,169.7c0-6.58,5.36-11.94,11.94-11.94h17.61v-12.11h-17.61c-13.26,0-24.05,10.79-24.05,24.05v50.52h12.11v-50.52Z"/>
      <rect class="st0" x="1684.86" y="119.84" width="12.11" height="135.8"/>
      <path class="st0" d="M1707.98,372.04h27.63v-12.11h-27.63c-12.75,0-23.12,10.37-23.12,23.12v26.12h-28.04v-237.86h-12.11v102.98h-18.84c-10.78,0-19.55,8.68-19.55,19.35v36.81h38.38v90.82h90.9v-12.11h-38.64v-26.12c0-6.07,4.94-11.01,11.01-11.01ZM1644.5,318.34h-26.06v-24.7c0-3.99,3.34-7.24,7.44-7.24h18.62v31.94Z"/>
      <path class="st0" d="M1684.75,296.77v21.58h-9.08v12.11h46.21v-12.11h-25.01v-21.58c0-6.07,4.94-11.01,11.01-11.01h14.01v-12.11h-14.01c-12.75,0-23.12,10.37-23.12,23.12Z"/>
      <path class="st0" d="M1606.33,397.22c0,6.58-5.36,11.94-11.94,11.94h-17.61v12.11h17.61c13.26,0,24.05-10.79,24.05-24.05v-50.52h-12.11v50.52Z"/>
      <rect class="st0" x="1565.55" y="176.41" width="12.11" height="135.8"/>
      <path class="st0" d="M1577.66,49v-26.12h28.04v237.86h12.11v-102.98h18.84c10.78,0,19.55-8.68,19.55-19.35v-36.81h-38.38V10.77h-90.9v12.11h38.64v26.12c0,6.07-4.94,11.01-11.01,11.01h-27.63v12.11h27.63c12.75,0,23.12-10.37,23.12-23.12ZM1618.02,113.7h26.06v24.7c0,3.99-3.34,7.24-7.44,7.24h-18.62v-31.94Z"/>
      <path class="st0" d="M1577.78,113.7h9.08v-12.11h-46.21v12.11h25.01v21.58c0,6.07-4.94,11.01-11.01,11.01h-14.01v12.11h14.01c12.75,0,23.12-10.37,23.12-23.12v-21.58Z"/>
      <path class="st0" d="M1656.19,34.82c0-6.58,5.36-11.94,11.94-11.94h17.61v-12.11h-17.61c-13.26,0-24.05,10.79-24.05,24.05v50.52h12.11v-50.52Z"/>
      <rect class="st0" x="1369.2" y="345.54" width="12.11" height="135.8"/>
      <path class="st0" d="M1369.2,608.75v26.12h-28.04v-237.86h-12.11v102.98h-18.84c-10.78,0-19.55,8.68-19.55,19.35v36.81h38.38v90.83h90.9v-12.11h-38.64v-26.12c0-6.07,4.94-11.01,11.01-11.01h27.63v-12.11h-27.63c-12.75,0-23.12,10.37-23.12,23.12ZM1328.83,544.04h-26.06v-24.7c0-3.99,3.34-7.24,7.44-7.24h18.62v31.94Z"/>
      <path class="st0" d="M1392.19,511.46h14.01v-12.11h-14.01c-12.75,0-23.12,10.37-23.12,23.12v21.58h-9.08v12.11h46.21v-12.11h-25.01v-21.58c0-6.07,4.94-11.01,11.01-11.01Z"/>
      <path class="st0" d="M1290.66,622.93c0,6.58-5.36,11.94-11.94,11.94h-17.61v12.11h17.61c13.26,0,24.05-10.79,24.05-24.05v-50.52h-12.11v50.52Z"/>
      <rect class="st0" x="1249.88" y="402.11" width="12.11" height="135.8"/>
      <path class="st0" d="M1261.99,274.7v-26.12h28.04v237.86h12.11v-102.98h18.84c10.78,0,19.55-8.68,19.55-19.35v-36.81h-38.38v-90.83h-90.9v12.11h38.64v26.12c0,6.07-4.94,11.01-11.01,11.01h-27.63v12.11h27.63c12.75,0,23.12-10.37,23.12-23.12ZM1302.35,339.41h26.06v24.7c0,3.99-3.34,7.24-7.44,7.24h-18.62v-31.94Z"/>
      <path class="st0" d="M1262.11,360.98v-21.58h9.08v-12.11h-46.21v12.11h25.01v21.58c0,6.07-4.94,11.01-11.01,11.01h-14.01v12.11h14.01c12.75,0,23.12-10.37,23.12-23.12Z"/>
      <path class="st0" d="M1340.53,260.52c0-6.58,5.36-11.94,11.94-11.94h17.61v-12.11h-17.61c-13.26,0-24.05,10.79-24.05,24.05v50.52h12.11v-50.52Z"/>
    </g>
    <g>
      <rect class="st0" x="1047.35" y="686.4" width="12.11" height="135.8"/>
      <path class="st0" d="M1047.35,949.61v26.12h-28.04v-237.86h-12.11v102.98h-18.84c-10.78,0-19.55,8.68-19.55,19.35v36.81h38.38v90.83h90.9v-12.11h-38.64v-26.12c0-6.07,4.94-11.01,11.01-11.01h27.63v-12.11h-27.63c-12.75,0-23.12,10.37-23.12,23.12ZM1006.99,884.9h-26.06v-24.7c0-3.99,3.34-7.24,7.44-7.24h18.62v31.94Z"/>
      <path class="st0" d="M1070.35,852.32h14.01v-12.11h-14.01c-12.75,0-23.12,10.37-23.12,23.12v21.58h-9.08v12.11h46.21v-12.11h-25.01v-21.58c0-6.07,4.94-11.01,11.01-11.01Z"/>
      <path class="st0" d="M968.82,963.78c0,6.58-5.36,11.94-11.94,11.94h-17.61v12.11h17.61c13.26,0,24.05-10.79,24.05-24.05v-50.52h-12.11v50.52Z"/>
      <rect class="st0" x="928.04" y="742.96" width="12.11" height="135.8"/>
      <path class="st0" d="M940.15,615.55v-26.12h28.04v237.86h12.11v-102.98h18.84c10.78,0,19.55-8.68,19.55-19.35v-36.81h-38.38v-90.83h-90.9v12.11h38.64v26.12c0,6.07-4.94,11.01-11.01,11.01h-27.63v12.11h27.63c12.75,0,23.12-10.37,23.12-23.12ZM980.51,680.26h26.06v24.7c0,3.99-3.34,7.24-7.44,7.24h-18.62v-31.94Z"/>
      <path class="st0" d="M940.27,680.26h9.08v-12.11h-46.21v12.11h25.01v21.58c0,6.07-4.94,11.01-11.01,11.01h-14.01v12.11h14.01c12.75,0,23.12-10.37,23.12-23.12v-21.58Z"/>
      <path class="st0" d="M1018.68,601.38c0-6.58,5.36-11.94,11.94-11.94h17.61v-12.11h-17.61c-13.26,0-24.05,10.79-24.05,24.05v50.52h12.11v-50.52Z"/>
      <rect class="st0" x="1205.19" y="551.52" width="12.11" height="135.8"/>
      <path class="st0" d="M1228.31,803.72h27.63v-12.11h-27.63c-12.75,0-23.12,10.37-23.12,23.12v26.12h-28.04v-237.86h-12.11v102.98h-18.84c-10.78,0-19.55,8.68-19.55,19.35v36.81h38.38v90.82h90.9v-12.11h-38.64v-26.12c0-6.07,4.94-11.01,11.01-11.01ZM1164.83,750.02h-26.06v-24.7c0-3.99,3.34-7.24,7.44-7.24h18.62v31.94Z"/>
      <path class="st0" d="M1205.07,728.45v21.58h-9.08v12.11h46.21v-12.11h-25.01v-21.58c0-6.07,4.94-11.01,11.01-11.01h14.01v-12.11h-14.01c-12.75,0-23.12,10.37-23.12,23.12Z"/>
      <path class="st0" d="M1126.65,828.9c0,6.58-5.36,11.94-11.94,11.94h-17.61v12.11h17.61c13.26,0,24.05-10.79,24.05-24.05v-50.52h-12.11v50.52Z"/>
      <rect class="st0" x="1085.87" y="608.09" width="12.11" height="135.8"/>
      <path class="st0" d="M1097.98,480.68v-26.12h28.04v237.86h12.11v-102.98h18.84c10.78,0,19.55-8.68,19.55-19.35v-36.81h-38.38v-90.83h-90.9v12.11h38.64v26.12c0,6.07-4.94,11.01-11.01,11.01h-27.63v12.11h27.63c12.75,0,23.12-10.37,23.12-23.12ZM1138.35,545.38h26.06v24.7c0,3.99-3.34,7.24-7.44,7.24h-18.62v-31.94Z"/>
      <path class="st0" d="M1098.1,545.38h9.08v-12.11h-46.21v12.11h25.01v21.58c0,6.07-4.94,11.01-11.01,11.01h-14.01v12.11h14.01c12.75,0,23.12-10.37,23.12-23.12v-21.58Z"/>
      <path class="st0" d="M1176.52,466.5c0-6.58,5.36-11.94,11.94-11.94h17.61v-12.11h-17.61c-13.26,0-24.05,10.79-24.05,24.05v50.52h12.11v-50.52Z"/>
      <rect class="st0" x="889.52" y="777.22" width="12.11" height="135.8"/>
      <path class="st0" d="M889.52,1040.43v26.12h-28.04v-237.86h-12.11v102.98h-18.84c-10.78,0-19.55,8.68-19.55,19.35v36.81h38.38v90.83h90.9v-12.11h-38.64v-26.12c0-6.07,4.94-11.01,11.01-11.01h27.63v-12.11h-27.63c-12.75,0-23.12,10.37-23.12,23.12ZM849.16,975.72h-26.06v-24.7c0-3.99,3.34-7.24,7.44-7.24h18.62v31.94Z"/>
      <path class="st0" d="M912.52,943.14h14.01v-12.11h-14.01c-12.75,0-23.12,10.37-23.12,23.12v21.58h-9.08v12.11h46.21v-12.11h-25.01v-21.58c0-6.07,4.94-11.01,11.01-11.01Z"/>
      <path class="st0" d="M810.99,1054.61c0,6.58-5.36,11.94-11.94,11.94h-17.61v12.11h17.61c13.26,0,24.05-10.79,24.05-24.05v-50.52h-12.11v50.52Z"/>
      <rect class="st0" x="770.21" y="833.79" width="12.11" height="135.8"/>
      <path class="st0" d="M782.32,706.38v-26.12h28.04v237.86h12.11v-102.98h18.84c10.78,0,19.55-8.68,19.55-19.35v-36.81h-38.38v-90.83h-90.9v12.11h38.64v26.12c0,6.07-4.94,11.01-11.01,11.01h-27.63v12.11h27.63c12.75,0,23.12-10.37,23.12-23.12ZM822.68,771.09h26.06v24.7c0,3.99-3.34,7.24-7.44,7.24h-18.62v-31.94Z"/>
      <path class="st0" d="M782.43,792.66v-21.58h9.08v-12.11h-46.21v12.11h25.01v21.58c0,6.07-4.94,11.01-11.01,11.01h-14.01v12.11h14.01c12.75,0,23.12-10.37,23.12-23.12Z"/>
      <path class="st0" d="M860.85,692.2c0-6.58,5.36-11.94,11.94-11.94h17.61v-12.11h-17.61c-13.26,0-24.05,10.79-24.05,24.05v50.52h12.11v-50.52Z"/>
    </g>
    <g>
      <rect class="st0" x="979.85" y="253.38" width="12.11" height="135.8"/>
      <path class="st0" d="M979.85,516.59v26.12h-28.04v-237.86h-12.11v102.98h-18.84c-10.78,0-19.55,8.68-19.55,19.35v36.81h38.38v90.83h90.9v-12.11h-38.64v-26.12c0-6.07,4.94-11.01,11.01-11.01h27.63v-12.11h-27.63c-12.75,0-23.12,10.37-23.12,23.12ZM939.49,451.88h-26.06v-24.7c0-3.99,3.34-7.24,7.44-7.24h18.62v31.94Z"/>
      <path class="st0" d="M1002.85,419.29h14.01v-12.11h-14.01c-12.75,0-23.12,10.37-23.12,23.12v21.58h-9.08v12.11h46.21v-12.11h-25.01v-21.58c0-6.07,4.94-11.01,11.01-11.01Z"/>
      <path class="st0" d="M901.32,530.76c0,6.58-5.36,11.94-11.94,11.94h-17.61v12.11h17.61c13.26,0,24.05-10.79,24.05-24.05v-50.52h-12.11v50.52Z"/>
      <rect class="st0" x="860.54" y="309.94" width="12.11" height="135.8"/>
      <path class="st0" d="M872.65,182.53v-26.12h28.04v237.86h12.11v-102.98h18.84c10.78,0,19.55-8.68,19.55-19.35v-36.81h-38.38v-90.83h-90.9v12.11h38.64v26.12c0,6.07-4.94,11.01-11.01,11.01h-27.63v12.11h27.63c12.75,0,23.12-10.37,23.12-23.12ZM913.01,247.24h26.06v24.7c0,3.99-3.34,7.24-7.44,7.24h-18.62v-31.94Z"/>
      <path class="st0" d="M872.76,247.24h9.08v-12.11h-46.21v12.11h25.01v21.58c0,6.07-4.94,11.01-11.01,11.01h-14.01v12.11h14.01c12.75,0,23.12-10.37,23.12-23.12v-21.58Z"/>
      <path class="st0" d="M951.18,168.36c0-6.58,5.36-11.94,11.94-11.94h17.61v-12.11h-17.61c-13.26,0-24.05,10.79-24.05,24.05v50.52h12.11v-50.52Z"/>
      <rect class="st0" x="1137.68" y="118.5" width="12.11" height="135.8"/>
      <path class="st0" d="M1160.8,370.7h27.63v-12.11h-27.63c-12.75,0-23.12,10.37-23.12,23.12v26.12h-28.04v-237.86h-12.11v102.98h-18.84c-10.78,0-19.55,8.68-19.55,19.35v36.81h38.38v90.82h90.9v-12.11h-38.64v-26.12c0-6.07,4.94-11.01,11.01-11.01ZM1097.32,317h-26.06v-24.7c0-3.99,3.34-7.24,7.44-7.24h18.62v31.94Z"/>
      <path class="st0" d="M1137.57,295.42v21.58h-9.08v12.11h46.21v-12.11h-25.01v-21.58c0-6.07,4.94-11.01,11.01-11.01h14.01v-12.11h-14.01c-12.75,0-23.12,10.37-23.12,23.12Z"/>
      <path class="st0" d="M1059.15,395.88c0,6.58-5.36,11.94-11.94,11.94h-17.61v12.11h17.61c13.26,0,24.05-10.79,24.05-24.05v-50.52h-12.11v50.52Z"/>
      <rect class="st0" x="1018.37" y="175.07" width="12.11" height="135.8"/>
      <path class="st0" d="M1030.48,47.65v-26.12h28.04v237.86h12.11v-102.98h18.84c10.78,0,19.55-8.68,19.55-19.35v-36.81h-38.38V9.43h-90.9v12.11h38.64v26.12c0,6.07-4.94,11.01-11.01,11.01h-27.63v12.11h27.63c12.75,0,23.12-10.37,23.12-23.12ZM1070.84,112.36h26.06v24.7c0,3.99-3.34,7.24-7.44,7.24h-18.62v-31.94Z"/>
      <path class="st0" d="M1030.6,112.36h9.08v-12.11h-46.21v12.11h25.01v21.58c0,6.07-4.94,11.01-11.01,11.01h-14.01v12.11h14.01c12.75,0,23.12-10.37,23.12-23.12v-21.58Z"/>
      <path class="st0" d="M1109.01,33.48c0-6.58,5.36-11.94,11.94-11.94h17.61v-12.11h-17.61c-13.26,0-24.05,10.79-24.05,24.05v50.52h12.11v-50.52Z"/>
      <rect class="st0" x="822.02" y="344.2" width="12.11" height="135.8"/>
      <path class="st0" d="M822.02,607.41v26.12h-28.04v-237.86h-12.11v102.98h-18.84c-10.78,0-19.55,8.68-19.55,19.35v36.81h38.38v90.83h90.9v-12.11h-38.64v-26.12c0-6.07,4.94-11.01,11.01-11.01h27.63v-12.11h-27.63c-12.75,0-23.12,10.37-23.12,23.12ZM781.65,542.7h-26.06v-24.7c0-3.99,3.34-7.24,7.44-7.24h18.62v31.94Z"/>
      <path class="st0" d="M845.01,510.12h14.01v-12.11h-14.01c-12.75,0-23.12,10.37-23.12,23.12v21.58h-9.08v12.11h46.21v-12.11h-25.01v-21.58c0-6.07,4.94-11.01,11.01-11.01Z"/>
      <path class="st0" d="M743.48,621.59c0,6.58-5.36,11.94-11.94,11.94h-17.61v12.11h17.61c13.26,0,24.05-10.79,24.05-24.05v-50.52h-12.11v50.52Z"/>
      <rect class="st0" x="702.7" y="400.77" width="12.11" height="135.8"/>
      <path class="st0" d="M714.81,273.36v-26.12h28.04v237.86h12.11v-102.98h18.84c10.78,0,19.55-8.68,19.55-19.35v-36.81h-38.38v-90.83h-90.9v12.11h38.64v26.12c0,6.07-4.94,11.01-11.01,11.01h-27.63v12.11h27.63c12.75,0,23.12-10.37,23.12-23.12ZM755.17,338.07h26.06v24.7c0,3.99-3.34,7.24-7.44,7.24h-18.62v-31.94Z"/>
      <path class="st0" d="M714.93,359.64v-21.58h9.08v-12.11h-46.21v12.11h25.01v21.58c0,6.07-4.94,11.01-11.01,11.01h-14.01v12.11h14.01c12.75,0,23.12-10.37,23.12-23.12Z"/>
      <path class="st0" d="M793.34,259.18c0-6.58,5.36-11.94,11.94-11.94h17.61v-12.11h-17.61c-13.26,0-24.05,10.79-24.05,24.05v50.52h12.11v-50.52Z"/>
    </g>
    <g>
      <rect class="st0" x="500.17" y="676.97" width="12.11" height="135.8"/>
      <path class="st0" d="M500.17,940.18v26.12h-28.04v-237.86h-12.11v102.98h-18.84c-10.78,0-19.55,8.68-19.55,19.35v36.81h38.38v90.83h90.9v-12.11h-38.64v-26.12c0-6.07,4.94-11.01,11.01-11.01h27.63v-12.11h-27.63c-12.75,0-23.12,10.37-23.12,23.12ZM459.81,875.47h-26.06v-24.7c0-3.99,3.34-7.24,7.44-7.24h18.62v31.94Z"/>
      <path class="st0" d="M523.17,842.89h14.01v-12.11h-14.01c-12.75,0-23.12,10.37-23.12,23.12v21.58h-9.08v12.11h46.21v-12.11h-25.01v-21.58c0-6.07,4.94-11.01,11.01-11.01Z"/>
      <path class="st0" d="M421.64,954.35c0,6.58-5.36,11.94-11.94,11.94h-17.61v12.11h17.61c13.26,0,24.05-10.79,24.05-24.05v-50.52h-12.11v50.52Z"/>
      <rect class="st0" x="380.86" y="733.54" width="12.11" height="135.8"/>
      <path class="st0" d="M392.97,606.13v-26.12h28.04v237.86h12.11v-102.98h18.84c10.78,0,19.55-8.68,19.55-19.35v-36.81h-38.38v-90.83h-90.9v12.11h38.64v26.12c0,6.07-4.94,11.01-11.01,11.01h-27.63v12.11h27.63c12.75,0,23.12-10.37,23.12-23.12ZM433.33,670.83h26.06v24.7c0,3.99-3.34,7.24-7.44,7.24h-18.62v-31.94Z"/>
      <path class="st0" d="M393.09,670.83h9.08v-12.11h-46.21v12.11h25.01v21.58c0,6.07-4.94,11.01-11.01,11.01h-14.01v12.11h14.01c12.75,0,23.12-10.37,23.12-23.12v-21.58Z"/>
      <path class="st0" d="M471.5,591.95c0-6.58,5.36-11.94,11.94-11.94h17.61v-12.11h-17.61c-13.26,0-24.05,10.79-24.05,24.05v50.52h12.11v-50.52Z"/>
      <rect class="st0" x="658.01" y="542.09" width="12.11" height="135.8"/>
      <path class="st0" d="M681.13,794.29h27.63v-12.11h-27.63c-12.75,0-23.12,10.37-23.12,23.12v26.12h-28.04v-237.86h-12.11v102.98h-18.84c-10.78,0-19.55,8.68-19.55,19.35v36.81h38.38v90.82h90.9v-12.11h-38.64v-26.12c0-6.07,4.94-11.01,11.01-11.01ZM617.65,740.59h-26.06v-24.7c0-3.99,3.34-7.24,7.44-7.24h18.62v31.94Z"/>
      <path class="st0" d="M657.89,719.02v21.58h-9.08v12.11h46.21v-12.11h-25.01v-21.58c0-6.07,4.94-11.01,11.01-11.01h14.01v-12.11h-14.01c-12.75,0-23.12,10.37-23.12,23.12Z"/>
      <path class="st0" d="M579.47,819.48c0,6.58-5.36,11.94-11.94,11.94h-17.61v12.11h17.61c13.26,0,24.05-10.79,24.05-24.05v-50.52h-12.11v50.52Z"/>
      <rect class="st0" x="538.69" y="598.66" width="12.11" height="135.8"/>
      <path class="st0" d="M550.8,471.25v-26.12h28.04v237.86h12.11v-102.98h18.84c10.78,0,19.55-8.68,19.55-19.35v-36.81h-38.38v-90.83h-90.9v12.11h38.64v26.12c0,6.07-4.94,11.01-11.01,11.01h-27.63v12.11h27.63c12.75,0,23.12-10.37,23.12-23.12ZM591.16,535.96h26.06v24.7c0,3.99-3.34,7.24-7.44,7.24h-18.62v-31.94Z"/>
      <path class="st0" d="M550.92,535.96h9.08v-12.11h-46.21v12.11h25.01v21.58c0,6.07-4.94,11.01-11.01,11.01h-14.01v12.11h14.01c12.75,0,23.12-10.37,23.12-23.12v-21.58Z"/>
      <path class="st0" d="M629.34,457.07c0-6.58,5.36-11.94,11.94-11.94h17.61v-12.11h-17.61c-13.26,0-24.05,10.79-24.05,24.05v50.52h12.11v-50.52Z"/>
      <rect class="st0" x="342.34" y="767.8" width="12.11" height="135.8"/>
      <path class="st0" d="M342.34,1031v26.12h-28.04v-237.86h-12.11v102.98h-18.84c-10.78,0-19.55,8.68-19.55,19.35v36.81h38.38v90.83h90.9v-12.11h-38.64v-26.12c0-6.07,4.94-11.01,11.01-11.01h27.63v-12.11h-27.63c-12.75,0-23.12,10.37-23.12,23.12ZM301.98,966.3h-26.06v-24.7c0-3.99,3.34-7.24,7.44-7.24h18.62v31.94Z"/>
      <path class="st0" d="M365.34,933.71h14.01v-12.11h-14.01c-12.75,0-23.12,10.37-23.12,23.12v21.58h-9.08v12.11h46.21v-12.11h-25.01v-21.58c0-6.07,4.94-11.01,11.01-11.01Z"/>
      <path class="st0" d="M263.81,1045.18c0,6.58-5.36,11.94-11.94,11.94h-17.61v12.11h17.61c13.26,0,24.05-10.79,24.05-24.05v-50.52h-12.11v50.52Z"/>
      <rect class="st0" x="223.03" y="824.36" width="12.11" height="135.8"/>
      <path class="st0" d="M235.14,696.95v-26.12h28.04v237.86h12.11v-102.98h18.84c10.78,0,19.55-8.68,19.55-19.35v-36.81h-38.38v-90.83h-90.9v12.11h38.64v26.12c0,6.07-4.94,11.01-11.01,11.01h-27.63v12.11h27.63c12.75,0,23.12-10.37,23.12-23.12ZM275.5,761.66h26.06v24.7c0,3.99-3.34,7.24-7.44,7.24h-18.62v-31.94Z"/>
      <path class="st0" d="M235.25,783.23v-21.58h9.08v-12.11h-46.21v12.11h25.01v21.58c0,6.07-4.94,11.01-11.01,11.01h-14.01v12.11h14.01c12.75,0,23.12-10.37,23.12-23.12Z"/>
      <path class="st0" d="M313.67,682.78c0-6.58,5.36-11.94,11.94-11.94h17.61v-12.11h-17.61c-13.26,0-24.05,10.79-24.05,24.05v50.52h12.11v-50.52Z"/>
    </g>
    <g>
      <rect class="st0" x="432.67" y="243.95" width="12.11" height="135.8"/>
      <path class="st0" d="M432.67,507.16v26.12h-28.04v-237.86h-12.11v102.98h-18.84c-10.78,0-19.55,8.68-19.55,19.35v36.81h38.38v90.83h90.9v-12.11h-38.64v-26.12c0-6.07,4.94-11.01,11.01-11.01h27.63v-12.11h-27.63c-12.75,0-23.12,10.37-23.12,23.12ZM392.31,442.45h-26.06v-24.7c0-3.99,3.34-7.24,7.44-7.24h18.62v31.94Z"/>
      <path class="st0" d="M455.67,409.87h14.01v-12.11h-14.01c-12.75,0-23.12,10.37-23.12,23.12v21.58h-9.08v12.11h46.21v-12.11h-25.01v-21.58c0-6.07,4.94-11.01,11.01-11.01Z"/>
      <path class="st0" d="M354.14,521.33c0,6.58-5.36,11.94-11.94,11.94h-17.61v12.11h17.61c13.26,0,24.05-10.79,24.05-24.05v-50.52h-12.11v50.52Z"/>
      <rect class="st0" x="313.35" y="300.52" width="12.11" height="135.8"/>
      <path class="st0" d="M325.46,173.1v-26.12h28.04v237.86h12.11v-102.98h18.84c10.78,0,19.55-8.68,19.55-19.35v-36.81h-38.38v-90.83h-90.9v12.11h38.64v26.12c0,6.07-4.94,11.01-11.01,11.01h-27.63v12.11h27.63c12.75,0,23.12-10.37,23.12-23.12ZM365.83,237.81h26.06v24.7c0,3.99-3.34,7.24-7.44,7.24h-18.62v-31.94Z"/>
      <path class="st0" d="M325.58,237.81h9.08v-12.11h-46.21v12.11h25.01v21.58c0,6.07-4.94,11.01-11.01,11.01h-14.01v12.11h14.01c12.75,0,23.12-10.37,23.12-23.12v-21.58Z"/>
      <path class="st0" d="M404,158.93c0-6.58,5.36-11.94,11.94-11.94h17.61v-12.11h-17.61c-13.26,0-24.05,10.79-24.05,24.05v50.52h12.11v-50.52Z"/>
      <rect class="st0" x="590.5" y="109.07" width="12.11" height="135.8"/>
      <path class="st0" d="M613.62,361.27h27.63v-12.11h-27.63c-12.75,0-23.12,10.37-23.12,23.12v26.12h-28.04v-237.86h-12.11v102.98h-18.84c-10.78,0-19.55,8.68-19.55,19.35v36.81h38.38v90.82h90.9v-12.11h-38.64v-26.12c0-6.07,4.94-11.01,11.01-11.01ZM550.14,307.57h-26.06v-24.7c0-3.99,3.34-7.24,7.44-7.24h18.62v31.94Z"/>
      <path class="st0" d="M590.39,286v21.58h-9.08v12.11h46.21v-12.11h-25.01v-21.58c0-6.07,4.94-11.01,11.01-11.01h14.01v-12.11h-14.01c-12.75,0-23.12,10.37-23.12,23.12Z"/>
      <path class="st0" d="M511.97,386.46c0,6.58-5.36,11.94-11.94,11.94h-17.61v12.11h17.61c13.26,0,24.05-10.79,24.05-24.05v-50.52h-12.11v50.52Z"/>
      <rect class="st0" x="471.19" y="165.64" width="12.11" height="135.8"/>
      <path class="st0" d="M483.3,38.23V12.11h28.04v237.86h12.11v-102.98h18.84c10.78,0,19.55-8.68,19.55-19.35v-36.81h-38.38V0h-90.9v12.11h38.64v26.12c0,6.07-4.94,11.01-11.01,11.01h-27.63v12.11h27.63c12.75,0,23.12-10.37,23.12-23.12ZM523.66,102.94h26.06v24.7c0,3.99-3.34,7.24-7.44,7.24h-18.62v-31.94Z"/>
      <path class="st0" d="M483.42,102.94h9.08v-12.11h-46.21v12.11h25.01v21.58c0,6.07-4.94,11.01-11.01,11.01h-14.01v12.11h14.01c12.75,0,23.12-10.37,23.12-23.12v-21.58Z"/>
      <path class="st0" d="M561.83,24.05c0-6.58,5.36-11.94,11.94-11.94h17.61V0h-17.61C560.51,0,549.72,10.79,549.72,24.05v50.52h12.11V24.05Z"/>
      <rect class="st0" x="274.84" y="334.77" width="12.11" height="135.8"/>
      <path class="st0" d="M274.84,597.98v26.12h-28.04v-237.86h-12.11v102.98h-18.84c-10.78,0-19.55,8.68-19.55,19.35v36.81h38.38v90.83h90.9v-12.11h-38.64v-26.12c0-6.07,4.94-11.01,11.01-11.01h27.63v-12.11h-27.63c-12.75,0-23.12,10.37-23.12,23.12ZM234.47,533.27h-26.06v-24.7c0-3.99,3.34-7.24,7.44-7.24h18.62v31.94Z"/>
      <path class="st0" d="M297.83,500.69h14.01v-12.11h-14.01c-12.75,0-23.12,10.37-23.12,23.12v21.58h-9.08v12.11h46.21v-12.11h-25.01v-21.58c0-6.07,4.94-11.01,11.01-11.01Z"/>
      <path class="st0" d="M196.3,612.16c0,6.58-5.36,11.94-11.94,11.94h-17.61v12.11h17.61c13.26,0,24.05-10.79,24.05-24.05v-50.52h-12.11v50.52Z"/>
      <rect class="st0" x="155.52" y="391.34" width="12.11" height="135.8"/>
      <path class="st0" d="M167.63,263.93v-26.12h28.04v237.86h12.11v-102.98h18.84c10.78,0,19.55-8.68,19.55-19.35v-36.81h-38.38v-90.83h-90.9v12.11h38.64v26.12c0,6.07-4.94,11.01-11.01,11.01h-27.63v12.11h27.63c12.75,0,23.12-10.37,23.12-23.12ZM207.99,328.64h26.06v24.7c0,3.99-3.34,7.24-7.44,7.24h-18.62v-31.94Z"/>
      <path class="st0" d="M167.75,350.21v-21.58h9.08v-12.11h-46.21v12.11h25.01v21.58c0,6.07-4.94,11.01-11.01,11.01h-14.01v12.11h14.01c12.75,0,23.12-10.37,23.12-23.12Z"/>
      <path class="st0" d="M246.16,249.75c0-6.58,5.36-11.94,11.94-11.94h17.61v-12.11h-17.61c-13.26,0-24.05,10.79-24.05,24.05v50.52h12.11v-50.52Z"/>
    </g>
  </g>
  <rect class="st1" x="-2901.33" y="-709.99" width="1920" height="1080"/>
</svg>