<svg width="1920" height="1269" viewBox="0 0 1920 1269" fill="none" xmlns="http://www.w3.org/2000/svg">
<mask id="mask0_2086_8385" style="mask-type:alpha" maskUnits="userSpaceOnUse" x="-1" y="-1" width="1922" height="1271">
<path d="M1686.96 803.164H1672.6V964.279H1686.96V803.164Z" stroke="#3F5B91" stroke-width="2" stroke-miterlimit="10"/>
<path d="M1672.6 1115.44V1146.43H1639.34V864.229H1624.98V986.405H1602.63C1589.84 986.405 1579.44 996.703 1579.44 1009.36V1053.03H1624.96V1160.8H1732.78V1146.43H1686.95V1115.44C1686.95 1108.24 1692.81 1102.38 1700.01 1102.38H1732.78V1088.01H1700.01C1684.89 1088.01 1672.59 1100.31 1672.59 1115.44H1672.6ZM1624.71 1038.67H1593.8V1009.36C1593.8 1004.63 1597.77 1000.77 1602.63 1000.77H1624.71V1038.67Z" stroke="#3F5B91" stroke-width="2" stroke-miterlimit="10"/>
<path d="M1699.87 1000.02H1716.48V985.648H1699.87C1684.74 985.648 1672.44 997.952 1672.44 1013.08V1038.68H1661.67V1053.05H1716.48V1038.68H1686.82V1013.08C1686.82 1005.88 1692.68 1000.02 1699.88 1000.02H1699.87Z" stroke="#3F5B91" stroke-width="2" stroke-miterlimit="10"/>
<path d="M1579.44 1132.25C1579.44 1140.06 1573.08 1146.42 1565.28 1146.42H1544.39V1160.79H1565.28C1581.01 1160.79 1593.8 1147.99 1593.8 1132.25V1072.32H1579.44V1132.25Z" stroke="#3F5B91" stroke-width="2" stroke-miterlimit="10"/>
<path d="M1545.43 870.283H1531.07V1031.4H1545.43V870.283Z" stroke="#3F5B91" stroke-width="2" stroke-miterlimit="10"/>
<path d="M1545.43 719.107V688.117H1578.69V970.317H1593.06V848.141H1615.4C1628.19 848.141 1638.59 837.843 1638.59 825.184V781.512H1593.07V673.75H1485.25V688.117H1531.08V719.107C1531.08 726.308 1525.22 732.169 1518.02 732.169H1485.25V746.536H1518.02C1533.14 746.536 1545.44 734.233 1545.44 719.107H1545.43ZM1593.3 795.879H1624.22V825.184C1624.22 829.917 1620.25 833.773 1615.39 833.773H1593.3V795.879Z" stroke="#3F5B91" stroke-width="2" stroke-miterlimit="10"/>
<path d="M1545.58 795.881H1556.35V781.514H1501.54V795.881H1531.2V821.484C1531.2 828.685 1525.34 834.546 1518.14 834.546H1501.52V848.914H1518.14C1533.26 848.914 1545.56 836.611 1545.56 821.484V795.881H1545.58Z" stroke="#3F5B91" stroke-width="2" stroke-miterlimit="10"/>
<path d="M1638.58 702.299C1638.58 694.492 1644.94 688.133 1652.74 688.133H1673.63V673.766H1652.74C1637.02 673.766 1624.22 686.567 1624.22 702.299V762.236H1638.58V702.299Z" stroke="#3F5B91" stroke-width="2" stroke-miterlimit="10"/>
<path d="M1874.17 643.145H1859.8V804.259H1874.17V643.145Z" stroke="#3F5B91" stroke-width="2" stroke-miterlimit="10"/>
<path d="M1887.23 942.357H1920V927.99H1887.23C1872.1 927.99 1859.8 940.293 1859.8 955.42V986.409H1826.54V704.209H1812.18V826.386H1789.83C1777.05 826.386 1766.65 836.684 1766.65 849.343V893.014H1812.17V1000.76H1919.99V986.397H1874.16V955.408C1874.16 948.206 1880.02 942.345 1887.21 942.345L1887.23 942.357ZM1811.93 878.647H1781.02V849.343C1781.02 844.609 1784.98 840.753 1789.85 840.753H1811.93V878.647Z" stroke="#3F5B91" stroke-width="2" stroke-miterlimit="10"/>
<path d="M1859.66 853.057V878.66H1848.89V893.027H1903.7V878.66H1874.04V853.057C1874.04 845.855 1879.9 839.994 1887.1 839.994H1903.71V825.627H1887.1C1871.97 825.627 1859.67 837.93 1859.67 853.057H1859.66Z" stroke="#3F5B91" stroke-width="2" stroke-miterlimit="10"/>
<path d="M1766.65 972.244C1766.65 980.051 1760.29 986.41 1752.48 986.41H1731.6V1000.78H1752.48C1768.21 1000.78 1781.01 987.976 1781.01 972.244V912.307H1766.65V972.244Z" stroke="#3F5B91" stroke-width="2" stroke-miterlimit="10"/>
<path d="M1732.64 710.258H1718.28V871.372H1732.64V710.258Z" stroke="#3F5B91" stroke-width="2" stroke-miterlimit="10"/>
<path d="M1732.64 559.099V528.11H1765.9V810.309H1780.26V688.133H1802.61C1815.4 688.133 1825.8 677.835 1825.8 665.176V621.504H1780.27V513.742H1672.46V528.11H1718.29V559.099C1718.29 566.3 1712.43 572.161 1705.23 572.161H1672.46V586.529H1705.23C1720.35 586.529 1732.65 574.225 1732.65 559.099H1732.64ZM1780.52 635.871H1811.43V665.176C1811.43 669.909 1807.47 673.765 1802.61 673.765H1780.52V635.871Z" stroke="#3F5B91" stroke-width="2" stroke-miterlimit="10"/>
<path d="M1732.78 635.871H1743.55V621.504H1688.74V635.871H1718.41V661.474C1718.41 668.676 1712.55 674.536 1705.35 674.536H1688.73V688.904H1705.35C1720.47 688.904 1732.77 676.601 1732.77 661.474V635.871H1732.78Z" stroke="#3F5B91" stroke-width="2" stroke-miterlimit="10"/>
<path d="M1825.8 542.275C1825.8 534.469 1832.16 528.11 1839.96 528.11H1860.85V513.742H1839.96C1824.23 513.742 1811.43 526.544 1811.43 542.275V602.213H1825.8V542.275Z" stroke="#3F5B91" stroke-width="2" stroke-miterlimit="10"/>
<path d="M1499.74 910.928H1485.38V1072.04H1499.74V910.928Z" stroke="#3F5B91" stroke-width="2" stroke-miterlimit="10"/>
<path d="M1485.38 1223.19V1254.18H1452.12V971.982H1437.76V1094.16H1415.41C1402.62 1094.16 1392.22 1104.46 1392.22 1117.12V1160.79H1437.75V1268.55H1545.56V1254.18H1499.73V1223.19C1499.73 1215.99 1505.59 1210.13 1512.79 1210.13H1545.56V1195.76H1512.79C1497.67 1195.76 1485.37 1208.07 1485.37 1223.19H1485.38ZM1437.51 1146.42H1406.6V1117.12C1406.6 1112.38 1410.56 1108.53 1415.42 1108.53H1437.51V1146.42Z" stroke="#3F5B91" stroke-width="2" stroke-miterlimit="10"/>
<path d="M1512.66 1107.76H1529.28V1093.4H1512.66C1497.54 1093.4 1485.24 1105.7 1485.24 1120.83V1146.43H1474.47V1160.8H1529.28V1146.43H1499.61V1120.83C1499.61 1113.62 1505.47 1107.76 1512.67 1107.76H1512.66Z" stroke="#3F5B91" stroke-width="2" stroke-miterlimit="10"/>
<path d="M1392.24 1240.02C1392.24 1247.82 1385.88 1254.18 1378.07 1254.18H1357.19V1268.55H1378.07C1393.8 1268.55 1406.6 1255.75 1406.6 1240.02V1180.08H1392.24V1240.02Z" stroke="#3F5B91" stroke-width="2" stroke-miterlimit="10"/>
<path d="M1358.23 978.031H1343.86V1139.15H1358.23V978.031Z" stroke="#3F5B91" stroke-width="2" stroke-miterlimit="10"/>
<path d="M1358.23 826.87V795.881H1391.49V1078.08H1405.85V955.904H1428.2C1440.98 955.904 1451.39 945.606 1451.39 932.947V889.275H1405.86V781.514H1298.04V795.881H1343.88V826.87C1343.88 834.072 1338.02 839.933 1330.82 839.933H1298.04V854.3H1330.82C1345.94 854.3 1358.24 841.997 1358.24 826.87H1358.23ZM1406.1 903.643H1437.01V932.947C1437.01 937.681 1433.05 941.537 1428.19 941.537H1406.1V903.643Z" stroke="#3F5B91" stroke-width="2" stroke-miterlimit="10"/>
<path d="M1358.36 929.232V903.629H1369.13V889.262H1314.32V903.629H1343.98V929.232C1343.98 936.433 1338.12 942.294 1330.92 942.294H1314.31V956.662H1330.92C1346.05 956.662 1358.35 944.359 1358.35 929.232H1358.36Z" stroke="#3F5B91" stroke-width="2" stroke-miterlimit="10"/>
<path d="M1451.37 810.047C1451.37 802.24 1457.73 795.881 1465.54 795.881H1486.42V781.514H1465.54C1449.81 781.514 1437.01 794.315 1437.01 810.047V869.984H1451.37V810.047Z" stroke="#3F5B91" stroke-width="2" stroke-miterlimit="10"/>
<path d="M1606.89 289.422H1592.52V450.536H1606.89V289.422Z" stroke="#3F5B91" stroke-width="2" stroke-miterlimit="10"/>
<path d="M1592.52 601.699V632.688H1559.27V350.488H1544.9V472.665H1522.55C1509.77 472.665 1499.37 482.963 1499.37 495.622V539.294H1544.89V647.055H1652.71V632.688H1606.88V601.699C1606.88 594.497 1612.74 588.637 1619.94 588.637H1652.71V574.269H1619.94C1604.81 574.269 1592.51 586.572 1592.51 601.699H1592.52ZM1544.65 524.926H1513.74V495.622C1513.74 490.888 1517.7 487.032 1522.57 487.032H1544.65V524.926Z" stroke="#3F5B91" stroke-width="2" stroke-miterlimit="10"/>
<path d="M1619.8 486.274H1636.42V471.906H1619.8C1604.68 471.906 1592.38 484.209 1592.38 499.336V524.939H1581.61V539.306H1636.42V524.939H1606.76V499.336C1606.76 492.135 1612.62 486.274 1619.82 486.274H1619.8Z" stroke="#3F5B91" stroke-width="2" stroke-miterlimit="10"/>
<path d="M1499.38 618.512C1499.38 626.318 1493.02 632.677 1485.21 632.677H1464.33V647.045H1485.21C1500.94 647.045 1513.74 634.244 1513.74 618.512V558.574H1499.38V618.512Z" stroke="#3F5B91" stroke-width="2" stroke-miterlimit="10"/>
<path d="M1465.37 356.527H1451.01V517.642H1465.37V356.527Z" stroke="#3F5B91" stroke-width="2" stroke-miterlimit="10"/>
<path d="M1465.37 205.368V174.379H1498.63V456.579H1512.99V334.402H1535.34C1548.13 334.402 1558.53 324.104 1558.53 311.445V267.773H1513.01V160.012H1405.19V174.379H1451.02V205.368C1451.02 212.57 1445.16 218.431 1437.96 218.431H1405.19V232.798H1437.96C1453.08 232.798 1465.38 220.495 1465.38 205.368H1465.37ZM1513.24 282.141H1544.15V311.445C1544.15 316.179 1540.19 320.035 1535.33 320.035H1513.24V282.141Z" stroke="#3F5B91" stroke-width="2" stroke-miterlimit="10"/>
<path d="M1465.5 282.141H1476.27V267.773H1421.46V282.141H1451.13V307.744C1451.13 314.945 1445.27 320.806 1438.07 320.806H1421.45V335.173H1438.07C1453.19 335.173 1465.49 322.87 1465.49 307.744V282.141H1465.5Z" stroke="#3F5B91" stroke-width="2" stroke-miterlimit="10"/>
<path d="M1558.52 188.557C1558.52 180.75 1564.87 174.391 1572.68 174.391H1593.57V160.023H1572.68C1556.95 160.023 1544.15 172.825 1544.15 188.557V248.494H1558.52V188.557Z" stroke="#3F5B91" stroke-width="2" stroke-miterlimit="10"/>
<path d="M1794.09 129.402H1779.73V290.517H1794.09V129.402Z" stroke="#3F5B91" stroke-width="2" stroke-miterlimit="10"/>
<path d="M1807.15 428.613H1839.93V414.246H1807.15C1792.03 414.246 1779.73 426.549 1779.73 441.676V472.665H1746.47V190.465H1732.11V312.641H1709.76C1696.97 312.641 1686.57 322.94 1686.57 335.599V379.27H1732.09V487.02H1839.91V472.653H1794.08V441.664C1794.08 434.462 1799.94 428.601 1807.14 428.601L1807.15 428.613ZM1731.86 364.903H1700.95V335.599C1700.95 330.865 1704.91 327.009 1709.77 327.009H1731.86V364.903Z" stroke="#3F5B91" stroke-width="2" stroke-miterlimit="10"/>
<path d="M1779.6 339.317V364.919H1768.83V379.287H1823.64V364.919H1793.97V339.317C1793.97 332.115 1799.83 326.254 1807.03 326.254H1823.65V311.887H1807.03C1791.91 311.887 1779.61 324.19 1779.61 339.317H1779.6Z" stroke="#3F5B91" stroke-width="2" stroke-miterlimit="10"/>
<path d="M1686.58 458.488C1686.58 466.295 1680.23 472.654 1672.42 472.654H1651.53V487.021H1672.42C1688.15 487.021 1700.95 474.22 1700.95 458.488V398.551H1686.58V458.488Z" stroke="#3F5B91" stroke-width="2" stroke-miterlimit="10"/>
<path d="M1652.58 196.516H1638.21V357.63H1652.58V196.516Z" stroke="#3F5B91" stroke-width="2" stroke-miterlimit="10"/>
<path d="M1652.58 45.3565V14.3674H1685.84V296.567H1700.2V174.391H1722.55C1735.33 174.391 1745.73 164.093 1745.73 151.434V107.762H1700.21V0H1592.39V14.3674H1638.22V45.3565C1638.22 52.558 1632.36 58.4189 1625.17 58.4189H1592.39V72.7863H1625.17C1640.29 72.7863 1652.59 60.4832 1652.59 45.3565H1652.58ZM1700.45 122.117H1731.36V151.422C1731.36 156.155 1727.4 160.011 1722.53 160.011H1700.45V122.117Z" stroke="#3F5B91" stroke-width="2" stroke-miterlimit="10"/>
<path d="M1652.72 122.121H1663.49V107.754H1608.68V122.121H1638.34V147.724C1638.34 154.926 1632.48 160.786 1625.28 160.786H1608.67V175.154H1625.28C1640.41 175.154 1652.71 162.851 1652.71 147.724V122.121H1652.72Z" stroke="#3F5B91" stroke-width="2" stroke-miterlimit="10"/>
<path d="M1745.72 28.5332C1745.72 20.7266 1752.08 14.3674 1759.89 14.3674H1780.77V0H1759.89C1744.16 0 1731.36 12.8014 1731.36 28.5332V88.4707H1745.72V28.5332Z" stroke="#3F5B91" stroke-width="2" stroke-miterlimit="10"/>
<path d="M1419.68 397.176H1405.32V558.29H1419.68V397.176Z" stroke="#3F5B91" stroke-width="2" stroke-miterlimit="10"/>
<path d="M1405.32 709.453V740.442H1372.06V458.242H1357.7V580.419H1335.35C1322.56 580.419 1312.16 590.717 1312.16 603.376V647.048H1357.68V754.809H1465.5V740.442H1419.67V709.453C1419.67 702.251 1425.53 696.39 1432.73 696.39H1465.5V682.023H1432.73C1417.61 682.023 1405.31 694.326 1405.31 709.453H1405.32ZM1357.44 632.68H1326.53V603.376C1326.53 598.642 1330.49 594.786 1335.35 594.786H1357.44V632.68Z" stroke="#3F5B91" stroke-width="2" stroke-miterlimit="10"/>
<path d="M1432.59 594.024H1449.2V579.656H1432.59C1417.46 579.656 1405.16 591.959 1405.16 607.086V632.689H1394.39V647.056H1449.2V632.689H1419.54V607.086C1419.54 599.885 1425.4 594.024 1432.6 594.024H1432.59Z" stroke="#3F5B91" stroke-width="2" stroke-miterlimit="10"/>
<path d="M1312.16 726.27C1312.16 734.076 1305.8 740.435 1298 740.435H1277.11V754.803H1298C1313.72 754.803 1326.52 742.001 1326.52 726.27V666.332H1312.16V726.27Z" stroke="#3F5B91" stroke-width="2" stroke-miterlimit="10"/>
<path d="M1278.15 464.289H1263.79V625.404H1278.15V464.289Z" stroke="#3F5B91" stroke-width="2" stroke-miterlimit="10"/>
<path d="M1278.15 313.13V282.141H1311.41V564.341H1325.78V442.164H1348.12C1360.91 442.164 1371.31 431.866 1371.31 419.207V375.535H1325.79V267.773H1217.97V282.141H1263.8V313.13C1263.8 320.331 1257.94 326.192 1250.74 326.192H1217.97V340.56H1250.74C1265.87 340.56 1278.17 328.257 1278.17 313.13H1278.15ZM1326.03 389.903H1356.94V419.207C1356.94 423.941 1352.97 427.797 1348.11 427.797H1326.03V389.903Z" stroke="#3F5B91" stroke-width="2" stroke-miterlimit="10"/>
<path d="M1278.29 415.49V389.887H1289.06V375.52H1234.25V389.887H1263.92V415.49C1263.92 422.691 1258.06 428.552 1250.86 428.552H1234.24V442.92H1250.86C1265.98 442.92 1278.28 430.616 1278.28 415.49H1278.29Z" stroke="#3F5B91" stroke-width="2" stroke-miterlimit="10"/>
<path d="M1371.31 296.307C1371.31 288.5 1377.67 282.141 1385.47 282.141H1406.36V267.773H1385.47C1369.75 267.773 1356.95 280.575 1356.95 296.307V356.244H1371.31V296.307Z" stroke="#3F5B91" stroke-width="2" stroke-miterlimit="10"/>
<path d="M1037.93 801.572H1023.56V962.687H1037.93V801.572Z" stroke="#3F5B91" stroke-width="2" stroke-miterlimit="10"/>
<path d="M1023.56 1113.85V1144.84H990.304V862.637H975.941V984.813H953.594C940.808 984.813 930.405 995.111 930.405 1007.77V1051.44H975.929V1159.2H1083.75V1144.84H1037.92V1113.85C1037.92 1106.65 1043.77 1100.79 1050.97 1100.79H1083.75V1086.42H1050.97C1035.85 1086.42 1023.55 1098.72 1023.55 1113.85H1023.56ZM975.691 1037.07H944.781V1007.77C944.781 1003.04 948.743 999.181 953.606 999.181H975.691V1037.07Z" stroke="#3F5B91" stroke-width="2" stroke-miterlimit="10"/>
<path d="M1050.84 998.424H1067.46V984.057H1050.84C1035.72 984.057 1023.42 996.36 1023.42 1011.49V1037.09H1012.65V1051.46H1067.46V1037.09H1037.8V1011.49C1037.8 1004.28 1043.66 998.424 1050.86 998.424H1050.84Z" stroke="#3F5B91" stroke-width="2" stroke-miterlimit="10"/>
<path d="M930.419 1130.66C930.419 1138.47 924.061 1144.83 916.257 1144.83H895.369V1159.2H916.257C931.985 1159.2 944.783 1146.39 944.783 1130.66V1070.72H930.419V1130.66Z" stroke="#3F5B91" stroke-width="2" stroke-miterlimit="10"/>
<path d="M896.412 868.676H882.048V1029.79H896.412V868.676Z" stroke="#3F5B91" stroke-width="2" stroke-miterlimit="10"/>
<path d="M896.411 717.517V686.528H929.67V968.727H944.034V846.551H966.381C979.167 846.551 989.57 836.253 989.57 823.594V779.922H944.046V672.16H836.228V686.528H882.059V717.517C882.059 724.718 876.2 730.579 869 730.579H836.228V744.946H869C884.123 744.946 896.423 732.643 896.423 717.517H896.411ZM944.283 794.289H975.194V823.594C975.194 828.327 971.232 832.183 966.369 832.183H944.283V794.289Z" stroke="#3F5B91" stroke-width="2" stroke-miterlimit="10"/>
<path d="M896.554 794.289H907.324V779.922H852.513V794.289H882.178V819.892C882.178 827.094 876.318 832.954 869.119 832.954H852.501V847.322H869.119C884.242 847.322 896.542 835.019 896.542 819.892V794.289H896.554Z" stroke="#3F5B91" stroke-width="2" stroke-miterlimit="10"/>
<path d="M989.558 700.709C989.558 692.902 995.916 686.543 1003.72 686.543H1024.61V672.176H1003.72C987.993 672.176 975.194 684.977 975.194 700.709V760.646H989.558V700.709Z" stroke="#3F5B91" stroke-width="2" stroke-miterlimit="10"/>
<path d="M1225.15 641.547H1210.78V802.661H1225.15V641.547Z" stroke="#3F5B91" stroke-width="2" stroke-miterlimit="10"/>
<path d="M1238.2 940.76H1270.98V926.392H1238.2C1223.08 926.392 1210.78 938.695 1210.78 953.822V984.811H1177.52V702.611H1163.16V824.788H1140.81C1128.03 824.788 1117.62 835.086 1117.62 847.745V891.417H1163.15V999.167H1270.97V984.799H1225.13V953.81C1225.13 946.609 1230.99 940.748 1238.19 940.748L1238.2 940.76ZM1162.91 877.049H1132V847.745C1132 843.011 1135.96 839.155 1140.82 839.155H1162.91V877.049Z" stroke="#3F5B91" stroke-width="2" stroke-miterlimit="10"/>
<path d="M1210.64 851.461V877.064H1199.87V891.431H1254.68V877.064H1225.01V851.461C1225.01 844.26 1230.87 838.399 1238.07 838.399H1254.69V824.031H1238.07C1222.95 824.031 1210.65 836.334 1210.65 851.461H1210.64Z" stroke="#3F5B91" stroke-width="2" stroke-miterlimit="10"/>
<path d="M1117.62 970.637C1117.62 978.443 1111.27 984.802 1103.46 984.802H1082.57V999.17H1103.46C1119.19 999.17 1131.99 986.369 1131.99 970.637V910.699H1117.62V970.637Z" stroke="#3F5B91" stroke-width="2" stroke-miterlimit="10"/>
<path d="M1083.62 708.666H1069.25V869.781H1083.62V708.666Z" stroke="#3F5B91" stroke-width="2" stroke-miterlimit="10"/>
<path d="M1083.62 557.505V526.516H1116.88V808.716H1131.24V686.539H1153.59C1166.37 686.539 1176.78 676.241 1176.78 663.582V619.91H1131.25V512.148H1023.43V526.516H1069.27V557.505C1069.27 564.706 1063.41 570.567 1056.21 570.567H1023.43V584.935H1056.21C1071.33 584.935 1083.63 572.632 1083.63 557.505H1083.62ZM1131.5 634.266H1162.41V663.57C1162.41 668.304 1158.45 672.16 1153.59 672.16H1131.5V634.266Z" stroke="#3F5B91" stroke-width="2" stroke-miterlimit="10"/>
<path d="M1083.76 634.266H1094.53V619.898H1039.72V634.266H1069.38V659.869C1069.38 667.07 1063.52 672.931 1056.32 672.931H1039.71V687.298H1056.32C1071.45 687.298 1083.75 674.995 1083.75 659.869V634.266H1083.76Z" stroke="#3F5B91" stroke-width="2" stroke-miterlimit="10"/>
<path d="M1176.78 540.682C1176.78 532.875 1183.13 526.516 1190.94 526.516H1211.82V512.148H1190.94C1175.21 512.148 1162.41 524.95 1162.41 540.682V600.619H1176.78V540.682Z" stroke="#3F5B91" stroke-width="2" stroke-miterlimit="10"/>
<path d="M850.722 909.324H836.358V1070.44H850.722V909.324Z" stroke="#3F5B91" stroke-width="2" stroke-miterlimit="10"/>
<path d="M836.358 1221.6V1252.58H803.099V970.385H788.735V1092.56H766.389C753.603 1092.56 743.2 1102.86 743.2 1115.52V1159.19H788.724V1266.95H896.542V1252.58H850.71V1221.6C850.71 1214.39 856.57 1208.53 863.77 1208.53H896.542V1194.17H863.77C848.647 1194.17 836.346 1206.47 836.346 1221.6H836.358ZM788.486 1144.82H757.576V1115.52C757.576 1110.78 761.538 1106.93 766.401 1106.93H788.486V1144.82Z" stroke="#3F5B91" stroke-width="2" stroke-miterlimit="10"/>
<path d="M863.638 1106.17H880.256V1091.8H863.638C848.515 1091.8 836.215 1104.11 836.215 1119.23V1144.84H825.445V1159.2H880.256V1144.84H850.591V1119.23C850.591 1112.03 856.451 1106.17 863.65 1106.17H863.638Z" stroke="#3F5B91" stroke-width="2" stroke-miterlimit="10"/>
<path d="M743.212 1238.42C743.212 1246.23 736.854 1252.59 729.05 1252.59H708.162V1266.95H729.05C744.778 1266.95 757.576 1254.15 757.576 1238.42V1178.48H743.212V1238.42Z" stroke="#3F5B91" stroke-width="2" stroke-miterlimit="10"/>
<path d="M709.207 976.439H694.843V1137.55H709.207V976.439Z" stroke="#3F5B91" stroke-width="2" stroke-miterlimit="10"/>
<path d="M709.205 825.278V794.289H742.464V1076.49H756.828V954.312H779.175C791.961 954.312 802.363 944.014 802.363 931.355V887.684H756.84V779.922H649.021V794.289H694.853V825.278C694.853 832.48 688.994 838.341 681.794 838.341H649.021V852.708H681.794C696.917 852.708 709.217 840.405 709.217 825.278H709.205ZM757.077 902.051H787.988V931.355C787.988 936.089 784.026 939.945 779.163 939.945H757.077V902.051Z" stroke="#3F5B91" stroke-width="2" stroke-miterlimit="10"/>
<path d="M709.337 927.64V902.037H720.107V887.67H665.296V902.037H694.961V927.64C694.961 934.842 689.102 940.703 681.902 940.703H665.284V955.07H681.902C697.025 955.07 709.325 942.767 709.325 927.64H709.337Z" stroke="#3F5B91" stroke-width="2" stroke-miterlimit="10"/>
<path d="M802.352 808.455C802.352 800.648 808.71 794.289 816.515 794.289H837.402V779.922H816.515C800.787 779.922 787.988 792.723 787.988 808.455V868.392H802.352V808.455Z" stroke="#3F5B91" stroke-width="2" stroke-miterlimit="10"/>
<path d="M388.906 790.389H374.542V951.503H388.906V790.389Z" stroke="#3F5B91" stroke-width="2" stroke-miterlimit="10"/>
<path d="M374.542 1102.66V1133.65H341.283V851.449H326.919V973.626H304.572C291.786 973.626 281.384 983.924 281.384 996.583V1040.25H326.907V1148.02H434.726V1133.65H388.894V1102.66C388.894 1095.46 394.753 1089.6 401.953 1089.6H434.726V1075.23H401.953C386.83 1075.23 374.53 1087.53 374.53 1102.66H374.542ZM326.67 1025.89H295.76V996.583C295.76 991.849 299.721 987.993 304.584 987.993H326.67V1025.89Z" stroke="#3F5B91" stroke-width="2" stroke-miterlimit="10"/>
<path d="M401.822 987.235H418.44V972.867H401.822C386.699 972.867 374.399 985.17 374.399 1000.3V1025.9H363.629V1040.27H418.44V1025.9H388.775V1000.3C388.775 993.095 394.634 987.235 401.834 987.235H401.822Z" stroke="#3F5B91" stroke-width="2" stroke-miterlimit="10"/>
<path d="M281.396 1119.47C281.396 1127.28 275.038 1133.64 267.233 1133.64H246.346V1148.01H267.233C282.961 1148.01 295.76 1135.21 295.76 1119.47V1059.54H281.396V1119.47Z" stroke="#3F5B91" stroke-width="2" stroke-miterlimit="10"/>
<path d="M247.39 857.504H233.026V1018.62H247.39V857.504Z" stroke="#3F5B91" stroke-width="2" stroke-miterlimit="10"/>
<path d="M247.389 706.341V675.352H280.648V957.552H295.012V835.375H317.358C330.145 835.375 340.547 825.077 340.547 812.418V768.746H295.024V660.984H187.205V675.352H233.037V706.341C233.037 713.542 227.177 719.403 219.978 719.403H187.205V733.771H219.978C235.101 733.771 247.401 721.468 247.401 706.341H247.389ZM295.261 783.102H326.171V812.406C326.171 817.14 322.21 820.996 317.346 820.996H295.261V783.102Z" stroke="#3F5B91" stroke-width="2" stroke-miterlimit="10"/>
<path d="M247.532 783.102H258.302V768.734H203.491V783.102H233.156V808.705C233.156 815.906 227.297 821.767 220.097 821.767H203.479V836.134H220.097C235.22 836.134 247.52 823.831 247.52 808.705V783.102H247.532Z" stroke="#3F5B91" stroke-width="2" stroke-miterlimit="10"/>
<path d="M340.536 689.518C340.536 681.711 346.893 675.352 354.698 675.352H375.586V660.984H354.698C338.97 660.984 326.172 673.786 326.172 689.518V749.455H340.536V689.518Z" stroke="#3F5B91" stroke-width="2" stroke-miterlimit="10"/>
<path d="M576.123 630.363H561.759V791.478H576.123V630.363Z" stroke="#3F5B91" stroke-width="2" stroke-miterlimit="10"/>
<path d="M589.182 929.578H621.954V915.211H589.182C574.059 915.211 561.759 927.514 561.759 942.64V973.629H528.5V691.43H514.136V813.606H491.789C479.003 813.606 468.601 823.904 468.601 836.563V880.235H514.124V987.985H621.943V973.618H576.111V942.628C576.111 935.427 581.97 929.566 589.17 929.566L589.182 929.578ZM513.887 865.868H482.976V836.563C482.976 831.83 486.938 827.974 491.801 827.974H513.887V865.868Z" stroke="#3F5B91" stroke-width="2" stroke-miterlimit="10"/>
<path d="M561.617 840.277V865.88H550.847V880.248H605.657V865.88H575.992V840.277C575.992 833.076 581.852 827.215 589.052 827.215H605.669V812.848H589.052C573.929 812.848 561.629 825.151 561.629 840.277H561.617Z" stroke="#3F5B91" stroke-width="2" stroke-miterlimit="10"/>
<path d="M468.601 959.463C468.601 967.269 462.243 973.629 454.438 973.629H433.551V987.996H454.438C470.166 987.996 482.965 975.195 482.965 959.463V899.525H468.601V959.463Z" stroke="#3F5B91" stroke-width="2" stroke-miterlimit="10"/>
<path d="M434.596 697.479H420.232V858.593H434.596V697.479Z" stroke="#3F5B91" stroke-width="2" stroke-miterlimit="10"/>
<path d="M434.596 546.317V515.328H467.855V797.528H482.219V675.352H504.565C517.352 675.352 527.754 665.053 527.754 652.394V608.723H482.231V500.961H374.412V515.328H420.244V546.317C420.244 553.519 414.384 559.38 407.185 559.38H374.412V573.747H407.185C422.308 573.747 434.608 561.444 434.608 546.317H434.596ZM482.468 623.09H513.378V652.394C513.378 657.128 509.417 660.984 504.554 660.984H482.468V623.09Z" stroke="#3F5B91" stroke-width="2" stroke-miterlimit="10"/>
<path d="M434.737 623.09H445.507V608.723H390.696V623.09H420.361V648.693C420.361 655.894 414.502 661.755 407.302 661.755H390.685V676.123H407.302C422.425 676.123 434.725 663.82 434.725 648.693V623.09H434.737Z" stroke="#3F5B91" stroke-width="2" stroke-miterlimit="10"/>
<path d="M527.754 529.494C527.754 521.688 534.111 515.328 541.916 515.328H562.804V500.961H541.916C526.188 500.961 513.39 513.762 513.39 529.494V589.432H527.754V529.494Z" stroke="#3F5B91" stroke-width="2" stroke-miterlimit="10"/>
<path d="M201.7 898.152H187.336V1059.27H201.7V898.152Z" stroke="#3F5B91" stroke-width="2" stroke-miterlimit="10"/>
<path d="M187.336 1210.41V1241.4H154.077V959.201H139.713V1081.38H117.366C104.58 1081.38 94.1777 1091.68 94.1777 1104.33V1148.01H139.701V1255.77H247.52V1241.4H201.688V1210.41C201.688 1203.21 207.547 1197.35 214.747 1197.35H247.52V1182.98H214.747C199.624 1182.98 187.324 1195.29 187.324 1210.41H187.336ZM139.464 1133.65H108.554V1104.35C108.554 1099.61 112.515 1095.76 117.378 1095.76H139.464V1133.65Z" stroke="#3F5B91" stroke-width="2" stroke-miterlimit="10"/>
<path d="M214.617 1094.99H231.235V1080.62H214.617C199.494 1080.62 187.194 1092.92 187.194 1108.05V1133.65H176.424V1148.02H231.235V1133.65H201.57V1108.05C201.57 1100.85 207.429 1094.99 214.629 1094.99H214.617Z" stroke="#3F5B91" stroke-width="2" stroke-miterlimit="10"/>
<path d="M94.1886 1227.24C94.1886 1235.04 87.831 1241.4 80.0263 1241.4H59.1387V1255.77H80.0263C95.7543 1255.77 108.553 1242.97 108.553 1227.24V1167.3H94.1886V1227.24Z" stroke="#3F5B91" stroke-width="2" stroke-miterlimit="10"/>
<path d="M60.1843 965.25H45.8203V1126.36H60.1843V965.25Z" stroke="#3F5B91" stroke-width="2" stroke-miterlimit="10"/>
<path d="M60.1839 814.091V783.102H93.4427V1065.3H107.807V943.125H130.153C142.94 943.125 153.342 932.827 153.342 920.168V876.496H107.819V768.734H0V783.102H45.8318V814.091C45.8318 821.292 39.9723 827.153 32.7726 827.153H0V841.521H32.7726C47.8956 841.521 60.1957 829.218 60.1957 814.091H60.1839ZM108.056 890.864H138.966V920.168C138.966 924.902 135.004 928.758 130.141 928.758H108.056V890.864Z" stroke="#3F5B91" stroke-width="2" stroke-miterlimit="10"/>
<path d="M60.3143 916.453V890.85H71.0843V876.482H16.2736V890.85H45.9385V916.453C45.9385 923.654 40.0791 929.515 32.8793 929.515H16.2617V943.882H32.8793C48.0024 943.882 60.3025 931.579 60.3025 916.453H60.3143Z" stroke="#3F5B91" stroke-width="2" stroke-miterlimit="10"/>
<path d="M153.33 797.277C153.33 789.471 159.687 783.112 167.492 783.112H188.38V768.744H167.492C151.764 768.744 138.966 781.546 138.966 797.277V857.215H153.33V797.277Z" stroke="#3F5B91" stroke-width="2" stroke-miterlimit="10"/>
</mask>
<g mask="url(#mask0_2086_8385)">
<rect width="1920" height="1080" fill="#D9D9D9"/>
</g>
</svg>
