<svg width="1636" height="1080" viewBox="0 0 1636 1080" fill="none" xmlns="http://www.w3.org/2000/svg">
<mask id="mask0_2086_8385" style="mask-type:alpha" maskUnits="userSpaceOnUse" x="0" y="-1" width="1637" height="1082">
<path d="M1437.22 683.785H1424.99V820.953H1437.22V683.785Z" stroke="#3F5B91" stroke-width="2" stroke-miterlimit="10"/>
<path d="M1424.99 949.65V976.033H1396.68V735.777H1384.45V839.794H1365.42C1354.54 839.794 1345.68 848.562 1345.68 859.339V896.52H1384.44V988.265H1476.23V976.033H1437.21V949.65C1437.21 943.519 1442.2 938.529 1448.33 938.529H1476.23V926.297H1448.33C1435.46 926.297 1424.98 936.771 1424.98 949.65H1424.99ZM1384.23 884.288H1357.91V859.339C1357.91 855.309 1361.28 852.026 1365.42 852.026H1384.23V884.288Z" stroke="#3F5B91" stroke-width="2" stroke-miterlimit="10"/>
<path d="M1448.21 851.38H1462.36V839.148H1448.21C1435.33 839.148 1424.86 849.623 1424.86 862.501V884.299H1415.69V896.531H1462.36V884.299H1437.1V862.501C1437.1 856.37 1442.09 851.38 1448.22 851.38H1448.21Z" stroke="#3F5B91" stroke-width="2" stroke-miterlimit="10"/>
<path d="M1345.68 963.962C1345.68 970.609 1340.27 976.023 1333.62 976.023H1315.84V988.255H1333.62C1347.01 988.255 1357.91 977.356 1357.91 963.962V912.934H1345.68V963.962Z" stroke="#3F5B91" stroke-width="2" stroke-miterlimit="10"/>
<path d="M1316.73 740.93H1304.5V878.097H1316.73V740.93Z" stroke="#3F5B91" stroke-width="2" stroke-miterlimit="10"/>
<path d="M1316.73 612.224V585.841H1345.04V826.097H1357.27V722.08H1376.3C1387.18 722.08 1396.04 713.312 1396.04 702.535V665.354H1357.28V573.609H1265.49V585.841H1304.51V612.224C1304.51 618.356 1299.52 623.345 1293.39 623.345H1265.49V635.577H1293.39C1306.27 635.577 1316.74 625.103 1316.74 612.224H1316.73ZM1357.49 677.586H1383.8V702.535C1383.8 706.565 1380.43 709.848 1376.29 709.848H1357.49V677.586Z" stroke="#3F5B91" stroke-width="2" stroke-miterlimit="10"/>
<path d="M1316.85 677.587H1326.02V665.355H1279.36V677.587H1304.61V699.385C1304.61 705.516 1299.62 710.506 1293.49 710.506H1279.35V722.738H1293.49C1306.37 722.738 1316.84 712.263 1316.84 699.385V677.587H1316.85Z" stroke="#3F5B91" stroke-width="2" stroke-miterlimit="10"/>
<path d="M1396.03 597.913C1396.03 591.267 1401.44 585.853 1408.09 585.853H1425.87V573.621H1408.09C1394.7 573.621 1383.8 584.52 1383.8 597.913V648.942H1396.03V597.913Z" stroke="#3F5B91" stroke-width="2" stroke-miterlimit="10"/>
<path d="M1596.6 547.551H1584.37V684.718H1596.6V547.551Z" stroke="#3F5B91" stroke-width="2" stroke-miterlimit="10"/>
<path d="M1607.72 802.294H1635.62V790.063H1607.72C1594.85 790.063 1584.37 800.537 1584.37 813.415V839.798H1556.06V599.543H1543.83V703.56H1524.8C1513.92 703.56 1505.06 712.327 1505.06 723.105V760.286H1543.82V852.02H1635.61V839.788H1596.59V813.405C1596.59 807.274 1601.58 802.284 1607.71 802.284L1607.72 802.294ZM1543.62 748.054H1517.3V723.105C1517.3 719.075 1520.67 715.792 1524.81 715.792H1543.62V748.054Z" stroke="#3F5B91" stroke-width="2" stroke-miterlimit="10"/>
<path d="M1584.25 726.267V748.064H1575.08V760.296H1621.75V748.064H1596.49V726.267C1596.49 720.136 1601.48 715.146 1607.61 715.146H1621.76V702.914H1607.61C1594.73 702.914 1584.26 713.388 1584.26 726.267H1584.25Z" stroke="#3F5B91" stroke-width="2" stroke-miterlimit="10"/>
<path d="M1505.06 827.736C1505.06 834.382 1499.65 839.796 1493 839.796H1475.22V852.028H1493C1506.39 852.028 1517.29 841.129 1517.29 827.736V776.707H1505.06V827.736Z" stroke="#3F5B91" stroke-width="2" stroke-miterlimit="10"/>
<path d="M1476.11 604.691H1463.88V741.859H1476.11V604.691Z" stroke="#3F5B91" stroke-width="2" stroke-miterlimit="10"/>
<path d="M1476.11 475.998V449.615H1504.43V689.87H1516.66V585.853H1535.68C1546.57 585.853 1555.42 577.086 1555.42 566.308V529.128H1516.67V437.383H1424.87V449.615H1463.89V475.998C1463.89 482.129 1458.9 487.119 1452.77 487.119H1424.87V499.351H1452.77C1465.65 499.351 1476.12 488.876 1476.12 475.998H1476.11ZM1516.88 541.359H1543.19V566.308C1543.19 570.338 1539.82 573.621 1535.68 573.621H1516.88V541.359Z" stroke="#3F5B91" stroke-width="2" stroke-miterlimit="10"/>
<path d="M1476.23 541.361H1485.4V529.129H1438.74V541.361H1463.99V563.158C1463.99 569.289 1459 574.279 1452.87 574.279H1438.73V586.511H1452.87C1465.75 586.511 1476.22 576.037 1476.22 563.158V541.361H1476.23Z" stroke="#3F5B91" stroke-width="2" stroke-miterlimit="10"/>
<path d="M1555.42 461.675C1555.42 455.029 1560.84 449.615 1567.48 449.615H1585.26V437.383H1567.48C1554.09 437.383 1543.19 448.281 1543.19 461.675V512.704H1555.42V461.675Z" stroke="#3F5B91" stroke-width="2" stroke-miterlimit="10"/>
<path d="M1277.83 775.531H1265.6V912.699H1277.83V775.531Z" stroke="#3F5B91" stroke-width="2" stroke-miterlimit="10"/>
<path d="M1265.6 1041.38V1067.77H1237.29V827.512H1225.06V931.529H1206.03C1195.15 931.529 1186.29 940.296 1186.29 951.074V988.254H1225.05V1080H1316.84V1067.77H1277.82V1041.38C1277.82 1035.25 1282.81 1030.26 1288.94 1030.26H1316.84V1018.03H1288.94C1276.06 1018.03 1265.59 1028.51 1265.59 1041.38H1265.6ZM1224.85 976.022H1198.53V951.074C1198.53 947.043 1201.9 943.761 1206.04 943.761H1224.85V976.022Z" stroke="#3F5B91" stroke-width="2" stroke-miterlimit="10"/>
<path d="M1288.83 943.111H1302.98V930.879H1288.83C1275.95 930.879 1265.48 941.353 1265.48 954.232V976.029H1256.31V988.261H1302.98V976.029H1277.72V954.232C1277.72 948.101 1282.71 943.111 1288.84 943.111H1288.83Z" stroke="#3F5B91" stroke-width="2" stroke-miterlimit="10"/>
<path d="M1186.3 1055.71C1186.3 1062.35 1180.89 1067.77 1174.24 1067.77H1156.46V1080H1174.24C1187.63 1080 1198.53 1069.1 1198.53 1055.71V1004.68H1186.3V1055.71Z" stroke="#3F5B91" stroke-width="2" stroke-miterlimit="10"/>
<path d="M1157.35 832.664H1145.12V969.832H1157.35V832.664Z" stroke="#3F5B91" stroke-width="2" stroke-miterlimit="10"/>
<path d="M1157.35 703.97V677.587H1185.66V917.843H1197.89V813.826H1216.92C1227.8 813.826 1236.66 805.058 1236.66 794.281V757.1H1197.9V665.355H1106.11V677.587H1145.13V703.97C1145.13 710.102 1140.14 715.091 1134.01 715.091H1106.11V727.323H1134.01C1146.89 727.323 1157.36 716.849 1157.36 703.97H1157.35ZM1198.11 769.332H1224.42V794.281C1224.42 798.311 1221.05 801.594 1216.91 801.594H1198.11V769.332Z" stroke="#3F5B91" stroke-width="2" stroke-miterlimit="10"/>
<path d="M1157.46 791.115V769.318H1166.63V757.086H1119.97V769.318H1145.22V791.115C1145.22 797.246 1140.23 802.236 1134.1 802.236H1119.96V814.468H1134.1C1146.98 814.468 1157.45 803.994 1157.45 791.115H1157.46Z" stroke="#3F5B91" stroke-width="2" stroke-miterlimit="10"/>
<path d="M1236.65 689.648C1236.65 683.001 1242.06 677.587 1248.71 677.587H1266.49V665.355H1248.71C1235.32 665.355 1224.42 676.254 1224.42 689.648V740.676H1236.65V689.648Z" stroke="#3F5B91" stroke-width="2" stroke-miterlimit="10"/>
<path d="M1369.05 246.402H1356.82V383.57H1369.05V246.402Z" stroke="#3F5B91" stroke-width="2" stroke-miterlimit="10"/>
<path d="M1356.82 512.267V538.65H1328.5V298.395H1316.28V402.412H1297.25C1286.37 402.412 1277.51 411.179 1277.51 421.956V459.137H1316.27V550.882H1408.06V538.65H1369.04V512.267C1369.04 506.136 1374.03 501.146 1380.16 501.146H1408.06V488.914H1380.16C1367.28 488.914 1356.81 499.389 1356.81 512.267H1356.82ZM1316.06 446.905H1289.75V421.956C1289.75 417.926 1293.12 414.644 1297.26 414.644H1316.06V446.905Z" stroke="#3F5B91" stroke-width="2" stroke-miterlimit="10"/>
<path d="M1380.05 413.998H1394.19V401.766H1380.05C1367.17 401.766 1356.7 412.24 1356.7 425.118V446.916H1347.53V459.148H1394.19V446.916H1368.94V425.118C1368.94 418.987 1373.93 413.998 1380.06 413.998H1380.05Z" stroke="#3F5B91" stroke-width="2" stroke-miterlimit="10"/>
<path d="M1277.52 526.58C1277.52 533.226 1272.11 538.64 1265.46 538.64H1247.68V550.872H1265.46C1278.85 550.872 1289.75 539.973 1289.75 526.58V475.551H1277.52V526.58Z" stroke="#3F5B91" stroke-width="2" stroke-miterlimit="10"/>
<path d="M1248.57 303.535H1236.34V440.703H1248.57V303.535Z" stroke="#3F5B91" stroke-width="2" stroke-miterlimit="10"/>
<path d="M1248.57 174.845V148.462H1276.88V388.718H1289.11V284.701H1308.14C1319.02 284.701 1327.88 275.933 1327.88 265.156V227.975H1289.12V136.23H1197.33V148.462H1236.35V174.845C1236.35 180.977 1231.36 185.966 1225.23 185.966H1197.33V198.198H1225.23C1238.1 198.198 1248.58 187.724 1248.58 174.845H1248.57ZM1289.32 240.207H1315.64V265.156C1315.64 269.186 1312.27 272.469 1308.13 272.469H1289.32V240.207Z" stroke="#3F5B91" stroke-width="2" stroke-miterlimit="10"/>
<path d="M1248.68 240.205H1257.85V227.973H1211.18V240.205H1236.44V262.002C1236.44 268.133 1231.45 273.123 1225.32 273.123H1211.17V285.355H1225.32C1238.2 285.355 1248.67 274.88 1248.67 262.002V240.205H1248.68Z" stroke="#3F5B91" stroke-width="2" stroke-miterlimit="10"/>
<path d="M1327.87 160.53C1327.87 153.884 1333.28 148.47 1339.93 148.47H1357.71V136.238H1339.93C1326.54 136.238 1315.64 147.137 1315.64 160.53V211.559H1327.87V160.53Z" stroke="#3F5B91" stroke-width="2" stroke-miterlimit="10"/>
<path d="M1528.43 110.168H1516.2V247.336H1528.43V110.168Z" stroke="#3F5B91" stroke-width="2" stroke-miterlimit="10"/>
<path d="M1539.55 364.908H1567.45V352.676H1539.55C1526.67 352.676 1516.2 363.15 1516.2 376.029V402.412H1487.88V162.156H1475.66V266.173H1456.63C1445.74 266.173 1436.89 274.941 1436.89 285.718V322.899H1475.65V414.634H1567.44V402.402H1528.42V376.019C1528.42 369.887 1533.41 364.898 1539.54 364.898L1539.55 364.908ZM1475.44 310.667H1449.13V285.718C1449.13 281.688 1452.5 278.405 1456.64 278.405H1475.44V310.667Z" stroke="#3F5B91" stroke-width="2" stroke-miterlimit="10"/>
<path d="M1516.09 288.884V310.681H1506.92V322.913H1553.58V310.681H1528.33V288.884C1528.33 282.753 1533.32 277.763 1539.45 277.763H1553.59V265.531H1539.45C1526.57 265.531 1516.1 276.006 1516.1 288.884H1516.09Z" stroke="#3F5B91" stroke-width="2" stroke-miterlimit="10"/>
<path d="M1436.9 390.341C1436.9 396.988 1431.49 402.402 1424.84 402.402H1407.06V414.633H1424.84C1438.23 414.633 1449.13 403.735 1449.13 390.341V339.312H1436.9V390.341Z" stroke="#3F5B91" stroke-width="2" stroke-miterlimit="10"/>
<path d="M1407.95 167.309H1395.72V304.476H1407.95V167.309Z" stroke="#3F5B91" stroke-width="2" stroke-miterlimit="10"/>
<path d="M1407.95 38.615V12.232H1436.26V252.487H1448.49V148.47H1467.52C1478.4 148.47 1487.26 139.703 1487.26 128.925V91.7447H1448.5V0H1356.71V12.232H1395.73V38.615C1395.73 44.7461 1390.74 49.7359 1384.61 49.7359H1356.71V61.9678H1384.61C1397.49 61.9678 1407.96 51.4934 1407.96 38.615H1407.95ZM1448.7 103.967H1475.02V128.915C1475.02 132.946 1471.65 136.228 1467.51 136.228H1448.7V103.967Z" stroke="#3F5B91" stroke-width="2" stroke-miterlimit="10"/>
<path d="M1408.07 103.97H1417.24V91.7383H1370.57V103.97H1395.83V125.768C1395.83 131.899 1390.84 136.888 1384.71 136.888H1370.56V149.12H1384.71C1397.59 149.12 1408.06 138.646 1408.06 125.768V103.97H1408.07Z" stroke="#3F5B91" stroke-width="2" stroke-miterlimit="10"/>
<path d="M1487.25 24.2922C1487.25 17.6459 1492.66 12.232 1499.31 12.232H1517.09V0H1499.31C1485.92 0 1475.02 10.8987 1475.02 24.2922V75.321H1487.25V24.2922Z" stroke="#3F5B91" stroke-width="2" stroke-miterlimit="10"/>
<path d="M1209.67 338.141H1197.44V475.308H1209.67V338.141Z" stroke="#3F5B91" stroke-width="2" stroke-miterlimit="10"/>
<path d="M1197.44 604.005V630.388H1169.13V390.133H1156.9V494.15H1137.87C1126.98 494.15 1118.13 502.917 1118.13 513.695V550.875H1156.89V642.62H1248.68V630.388H1209.66V604.005C1209.66 597.874 1214.65 592.884 1220.78 592.884H1248.68V580.652H1220.78C1207.9 580.652 1197.43 591.127 1197.43 604.005H1197.44ZM1156.67 538.643H1130.36V513.695C1130.36 509.665 1133.73 506.382 1137.87 506.382H1156.67V538.643Z" stroke="#3F5B91" stroke-width="2" stroke-miterlimit="10"/>
<path d="M1220.65 505.732H1234.8V493.5H1220.65C1207.78 493.5 1197.31 503.974 1197.31 516.853V538.65H1188.14V550.882H1234.8V538.65H1209.55V516.853C1209.55 510.722 1214.54 505.732 1220.67 505.732H1220.65Z" stroke="#3F5B91" stroke-width="2" stroke-miterlimit="10"/>
<path d="M1118.13 618.322C1118.13 624.968 1112.71 630.382 1106.07 630.382H1088.29V642.614H1106.07C1119.46 642.614 1130.36 631.715 1130.36 618.322V567.293H1118.13V618.322Z" stroke="#3F5B91" stroke-width="2" stroke-miterlimit="10"/>
<path d="M1089.18 395.281H1076.95V532.449H1089.18V395.281Z" stroke="#3F5B91" stroke-width="2" stroke-miterlimit="10"/>
<path d="M1089.18 266.588V240.205H1117.49V480.46H1129.72V376.443H1148.75C1159.63 376.443 1168.49 367.676 1168.49 356.898V319.717H1129.73V227.973H1037.94V240.205H1076.96V266.588C1076.96 272.719 1071.97 277.709 1065.84 277.709H1037.94V289.94H1065.84C1078.71 289.94 1089.19 279.466 1089.19 266.588H1089.18ZM1129.93 331.949H1156.25V356.898C1156.25 360.928 1152.88 364.211 1148.74 364.211H1129.93V331.949Z" stroke="#3F5B91" stroke-width="2" stroke-miterlimit="10"/>
<path d="M1089.3 353.732V331.935H1098.47V319.703H1051.8V331.935H1077.06V353.732C1077.06 359.864 1072.07 364.853 1065.94 364.853H1051.79V377.085H1065.94C1078.81 377.085 1089.29 366.611 1089.29 353.732H1089.3Z" stroke="#3F5B91" stroke-width="2" stroke-miterlimit="10"/>
<path d="M1168.49 252.265C1168.49 245.619 1173.9 240.205 1180.55 240.205H1198.33V227.973H1180.55C1167.15 227.973 1156.26 238.871 1156.26 252.265V303.294H1168.49V252.265Z" stroke="#3F5B91" stroke-width="2" stroke-miterlimit="10"/>
<path d="M884.657 682.434H872.428V819.601H884.657V682.434Z" stroke="#3F5B91" stroke-width="2" stroke-miterlimit="10"/>
<path d="M872.427 948.294V974.677H844.111V734.422H831.882V838.439H812.857C801.971 838.439 793.115 847.206 793.115 857.984V895.165H831.872V986.909H923.665V974.677H884.646V948.294C884.646 942.163 889.634 937.173 895.764 937.173H923.665V924.941H895.764C882.889 924.941 872.417 935.416 872.417 948.294H872.427ZM831.67 882.933H805.354V857.984C805.354 853.954 808.727 850.671 812.867 850.671H831.67V882.933Z" stroke="#3F5B91" stroke-width="2" stroke-miterlimit="10"/>
<path d="M895.653 850.025H909.801V837.793H895.653C882.778 837.793 872.306 848.267 872.306 861.146V882.943H863.137V895.175H909.801V882.943H884.545V861.146C884.545 855.015 889.534 850.025 895.663 850.025H895.653Z" stroke="#3F5B91" stroke-width="2" stroke-miterlimit="10"/>
<path d="M793.127 962.607C793.127 969.253 787.715 974.667 781.07 974.667H763.287V986.899H781.07C794.46 986.899 805.356 976 805.356 962.607V911.578H793.127V962.607Z" stroke="#3F5B91" stroke-width="2" stroke-miterlimit="10"/>
<path d="M764.174 739.562H751.945V876.73H764.174V739.562Z" stroke="#3F5B91" stroke-width="2" stroke-miterlimit="10"/>
<path d="M764.174 610.869V584.486H792.49V824.741H804.719V720.724H823.744C834.63 720.724 843.486 711.957 843.486 701.179V663.999H804.729V572.254H712.936V584.486H751.955V610.869C751.955 617 746.967 621.99 740.837 621.99H712.936V634.222H740.837C753.712 634.222 764.184 623.747 764.184 610.869H764.174ZM804.931 676.231H831.247V701.179C831.247 705.21 827.874 708.492 823.734 708.492H804.931V676.231Z" stroke="#3F5B91" stroke-width="2" stroke-miterlimit="10"/>
<path d="M764.295 676.232H773.464V664H726.8V676.232H752.056V698.029C752.056 704.16 747.067 709.15 740.938 709.15H726.79V721.382H740.938C753.813 721.382 764.285 710.908 764.285 698.029V676.232H764.295Z" stroke="#3F5B91" stroke-width="2" stroke-miterlimit="10"/>
<path d="M843.476 596.562C843.476 589.915 848.889 584.501 855.533 584.501H873.316V572.27H855.533C842.143 572.27 831.247 583.168 831.247 596.562V647.591H843.476V596.562Z" stroke="#3F5B91" stroke-width="2" stroke-miterlimit="10"/>
<path d="M1044.05 546.191H1031.82V683.359H1044.05V546.191Z" stroke="#3F5B91" stroke-width="2" stroke-miterlimit="10"/>
<path d="M1055.17 800.931H1083.07V788.699H1055.17C1042.29 788.699 1031.82 799.174 1031.82 812.052V838.435H1003.5V598.18H991.274V702.197H972.249C961.363 702.197 952.507 710.964 952.507 721.742V758.922H991.264V850.657H1083.06V838.425H1044.04V812.042C1044.04 805.911 1049.03 800.921 1055.16 800.921L1055.17 800.931ZM991.062 746.69H964.746V721.742C964.746 717.711 968.119 714.429 972.259 714.429H991.062V746.69Z" stroke="#3F5B91" stroke-width="2" stroke-miterlimit="10"/>
<path d="M1031.7 724.904V746.701H1022.53V758.933H1069.19V746.701H1043.94V724.904C1043.94 718.772 1048.92 713.783 1055.05 713.783H1069.2V701.551H1055.05C1042.18 701.551 1031.71 712.025 1031.71 724.904H1031.7Z" stroke="#3F5B91" stroke-width="2" stroke-miterlimit="10"/>
<path d="M952.505 826.369C952.505 833.015 947.093 838.429 940.448 838.429H922.665V850.661H940.448C953.838 850.661 964.734 839.762 964.734 826.369V775.34H952.505V826.369Z" stroke="#3F5B91" stroke-width="2" stroke-miterlimit="10"/>
<path d="M923.554 603.332H911.325V740.5H923.554V603.332Z" stroke="#3F5B91" stroke-width="2" stroke-miterlimit="10"/>
<path d="M923.555 474.642V448.259H951.87V688.515H964.099V584.498H983.124C994.01 584.498 1002.87 575.73 1002.87 564.953V527.772H964.11V436.027H872.316V448.259H911.336V474.642C911.336 480.773 906.348 485.763 900.218 485.763H872.316V497.995H900.218C913.093 497.995 923.565 487.521 923.565 474.642H923.555ZM964.322 539.994H990.638V564.943C990.638 568.973 987.265 572.256 983.124 572.256H964.322V539.994Z" stroke="#3F5B91" stroke-width="2" stroke-miterlimit="10"/>
<path d="M923.676 539.994H932.845V527.762H886.181V539.994H911.437V561.791C911.437 567.922 906.448 572.912 900.319 572.912H886.171V585.144H900.319C913.194 585.144 923.666 574.669 923.666 561.791V539.994H923.676Z" stroke="#3F5B91" stroke-width="2" stroke-miterlimit="10"/>
<path d="M1002.87 460.32C1002.87 453.673 1008.28 448.259 1014.92 448.259H1032.71V436.027H1014.92C1001.53 436.027 990.637 446.926 990.637 460.32V511.348H1002.87V460.32Z" stroke="#3F5B91" stroke-width="2" stroke-miterlimit="10"/>
<path d="M725.276 774.168H713.047V911.336H725.276V774.168Z" stroke="#3F5B91" stroke-width="2" stroke-miterlimit="10"/>
<path d="M713.047 1040.03V1066.41H684.732V826.156H672.503V930.173H653.477C642.592 930.173 633.735 938.941 633.735 949.718V986.899H672.492V1078.64H764.286V1066.41H725.266V1040.03C725.266 1033.9 730.254 1028.91 736.384 1028.91H764.286V1016.68H736.384C723.509 1016.68 713.037 1027.15 713.037 1040.03H713.047ZM672.29 974.667H645.974V949.718C645.974 945.688 649.347 942.405 653.488 942.405H672.29V974.667Z" stroke="#3F5B91" stroke-width="2" stroke-miterlimit="10"/>
<path d="M736.272 941.759H750.42V929.527H736.272C723.397 929.527 712.925 940.002 712.925 952.88V974.677H703.756V986.909H750.42V974.677H725.164V952.88C725.164 946.749 730.153 941.759 736.282 941.759H736.272Z" stroke="#3F5B91" stroke-width="2" stroke-miterlimit="10"/>
<path d="M633.746 1054.35C633.746 1061 628.333 1066.41 621.688 1066.41H603.905V1078.64H621.688C635.079 1078.64 645.975 1067.74 645.975 1054.35V1003.32H633.746V1054.35Z" stroke="#3F5B91" stroke-width="2" stroke-miterlimit="10"/>
<path d="M604.794 831.305H592.565V968.472H604.794V831.305Z" stroke="#3F5B91" stroke-width="2" stroke-miterlimit="10"/>
<path d="M604.793 702.615V676.232H633.109V916.487H645.338V812.47H664.363C675.249 812.47 684.105 803.703 684.105 792.925V755.745H645.348V664H553.555V676.232H592.574V702.615C592.574 708.746 587.586 713.736 581.456 713.736H553.555V725.968H581.456C594.331 725.968 604.803 715.493 604.803 702.615H604.793ZM645.55 767.977H671.866V792.925C671.866 796.956 668.493 800.238 664.353 800.238H645.55V767.977Z" stroke="#3F5B91" stroke-width="2" stroke-miterlimit="10"/>
<path d="M604.905 789.764V767.966H614.075V755.734H567.41V767.966H592.666V789.764C592.666 795.895 587.678 800.885 581.548 800.885H567.4V813.117H581.548C594.423 813.117 604.895 802.642 604.895 789.764H604.905Z" stroke="#3F5B91" stroke-width="2" stroke-miterlimit="10"/>
<path d="M684.095 688.292C684.095 681.646 689.508 676.232 696.152 676.232H713.936V664H696.152C682.762 664 671.866 674.899 671.866 688.292V739.321H684.095V688.292Z" stroke="#3F5B91" stroke-width="2" stroke-miterlimit="10"/>
<path d="M332.101 672.914H319.872V810.082H332.101V672.914Z" stroke="#3F5B91" stroke-width="2" stroke-miterlimit="10"/>
<path d="M319.872 938.767V965.15H291.557V724.895H279.328V828.912H260.303C249.417 828.912 240.561 837.679 240.561 848.457V885.637H279.318V977.382H371.111V965.15H332.091V938.767C332.091 932.636 337.08 927.646 343.209 927.646H371.111V915.414H343.209C330.334 915.414 319.862 925.889 319.862 938.767H319.872ZM279.116 873.405H252.8V848.457C252.8 844.426 256.172 841.144 260.313 841.144H279.116V873.405Z" stroke="#3F5B91" stroke-width="2" stroke-miterlimit="10"/>
<path d="M343.097 840.498H357.245V828.266H343.097C330.222 828.266 319.75 838.74 319.75 851.618V873.416H310.581V885.648H357.245V873.416H331.989V851.618C331.989 845.487 336.978 840.498 343.108 840.498H343.097Z" stroke="#3F5B91" stroke-width="2" stroke-miterlimit="10"/>
<path d="M240.571 953.083C240.571 959.73 235.158 965.144 228.514 965.144H210.73V977.376H228.514C241.904 977.376 252.8 966.477 252.8 953.083V902.055H240.571V953.083Z" stroke="#3F5B91" stroke-width="2" stroke-miterlimit="10"/>
<path d="M211.62 730.051H199.391V867.218H211.62V730.051Z" stroke="#3F5B91" stroke-width="2" stroke-miterlimit="10"/>
<path d="M211.618 601.353V574.97H239.934V815.226H252.163V711.209H271.188C282.074 711.209 290.93 702.441 290.93 691.664V654.483H252.173V562.738H160.38V574.97H199.4V601.353C199.4 607.484 194.411 612.474 188.281 612.474H160.38V624.706H188.281C201.157 624.706 211.629 614.232 211.629 601.353H211.618ZM252.375 666.705H278.691V691.654C278.691 695.684 275.318 698.967 271.178 698.967H252.375V666.705Z" stroke="#3F5B91" stroke-width="2" stroke-miterlimit="10"/>
<path d="M211.74 666.709H220.909V654.477H174.245V666.709H199.501V688.506C199.501 694.637 194.513 699.627 188.383 699.627H174.235V711.859H188.383C201.258 711.859 211.73 701.384 211.73 688.506V666.709H211.74Z" stroke="#3F5B91" stroke-width="2" stroke-miterlimit="10"/>
<path d="M290.92 587.03C290.92 580.384 296.333 574.97 302.978 574.97H320.761V562.738H302.978C289.587 562.738 278.691 573.637 278.691 587.03V638.059H290.92V587.03Z" stroke="#3F5B91" stroke-width="2" stroke-miterlimit="10"/>
<path d="M491.492 536.672H479.263V673.839H491.492V536.672Z" stroke="#3F5B91" stroke-width="2" stroke-miterlimit="10"/>
<path d="M502.609 791.412H530.511V779.18H502.609C489.734 779.18 479.262 789.654 479.262 802.533V828.916H450.946V588.66H438.717V692.677H419.692C408.806 692.677 399.95 701.445 399.95 712.222V749.403H438.707V841.137H530.5V828.905H491.481V802.522C491.481 796.391 496.469 791.402 502.599 791.402L502.609 791.412ZM438.505 737.171H412.189V712.222C412.189 708.192 415.562 704.909 419.702 704.909H438.505V737.171Z" stroke="#3F5B91" stroke-width="2" stroke-miterlimit="10"/>
<path d="M479.141 715.384V737.181H469.972V749.413H516.636V737.181H491.38V715.384C491.38 709.253 496.369 704.263 502.498 704.263H516.646V692.031H502.498C489.623 692.031 479.151 702.506 479.151 715.384H479.141Z" stroke="#3F5B91" stroke-width="2" stroke-miterlimit="10"/>
<path d="M399.951 816.857C399.951 823.503 394.538 828.917 387.893 828.917H370.11V841.149H387.893C401.284 841.149 412.18 830.25 412.18 816.857V765.828H399.951V816.857Z" stroke="#3F5B91" stroke-width="2" stroke-miterlimit="10"/>
<path d="M371 593.809H358.771V730.976H371V593.809Z" stroke="#3F5B91" stroke-width="2" stroke-miterlimit="10"/>
<path d="M371 465.115V438.732H399.316V678.987H411.545V574.97H430.57C441.456 574.97 450.312 566.203 450.312 555.425V518.245H411.555V426.5H319.762V438.732H358.781V465.115C358.781 471.246 353.793 476.236 347.663 476.236H319.762V488.468H347.663C360.538 488.468 371.01 477.993 371.01 465.115H371ZM411.757 530.477H438.073V555.425C438.073 559.456 434.7 562.738 430.56 562.738H411.757V530.477Z" stroke="#3F5B91" stroke-width="2" stroke-miterlimit="10"/>
<path d="M371.12 530.478H380.289V518.246H333.625V530.478H358.881V552.275C358.881 558.407 353.892 563.396 347.763 563.396H333.615V575.628H347.763C360.638 575.628 371.11 565.154 371.11 552.275V530.478H371.12Z" stroke="#3F5B91" stroke-width="2" stroke-miterlimit="10"/>
<path d="M450.311 450.792C450.311 444.146 455.724 438.732 462.368 438.732H480.151V426.5H462.368C448.978 426.5 438.082 437.399 438.082 450.792V501.821H450.311V450.792Z" stroke="#3F5B91" stroke-width="2" stroke-miterlimit="10"/>
<path d="M172.72 764.656H160.491V901.824H172.72V764.656Z" stroke="#3F5B91" stroke-width="2" stroke-miterlimit="10"/>
<path d="M160.491 1030.51V1056.89H132.176V816.633H119.947V920.65H100.922C90.0359 920.65 81.1797 929.417 81.1797 940.195V977.375H119.937V1069.12H211.73V1056.89H172.71V1030.51C172.71 1024.37 177.699 1019.38 183.828 1019.38H211.73V1007.15H183.828C170.953 1007.15 160.481 1017.63 160.481 1030.51H160.491ZM119.735 965.154H93.4188V940.205C93.4188 936.175 96.7916 932.892 100.932 932.892H119.735V965.154Z" stroke="#3F5B91" stroke-width="2" stroke-miterlimit="10"/>
<path d="M183.718 932.236H197.865V920.004H183.718C170.842 920.004 160.37 930.478 160.37 943.357V965.154H151.201V977.386H197.865V965.154H172.609V943.357C172.609 937.226 177.598 932.236 183.728 932.236H183.718Z" stroke="#3F5B91" stroke-width="2" stroke-miterlimit="10"/>
<path d="M81.189 1044.83C81.189 1051.48 75.7763 1056.89 69.1317 1056.89H51.3486V1069.12H69.1317C82.5219 1069.12 93.418 1058.22 93.418 1044.83V993.801H81.189V1044.83Z" stroke="#3F5B91" stroke-width="2" stroke-miterlimit="10"/>
<path d="M52.2387 821.781H40.0098V958.949H52.2387V821.781Z" stroke="#3F5B91" stroke-width="2" stroke-miterlimit="10"/>
<path d="M52.2385 693.092V666.709H80.554V906.964H92.783V802.947H111.808C122.694 802.947 131.55 794.179 131.55 783.402V746.221H92.7931V654.477H1V666.709H40.0196V693.092C40.0196 699.223 35.0311 704.212 28.9015 704.212H1V716.444H28.9015C41.7767 716.444 52.2486 705.97 52.2486 693.092H52.2385ZM92.9951 758.453H119.311V783.402C119.311 787.432 115.938 790.715 111.798 790.715H92.9951V758.453Z" stroke="#3F5B91" stroke-width="2" stroke-miterlimit="10"/>
<path d="M52.3496 780.236V758.439H61.5188V746.207H14.8548V758.439H40.1106V780.236C40.1106 786.367 35.122 791.357 28.9924 791.357H14.8447V803.589H28.9924C41.8676 803.589 52.3395 793.115 52.3395 780.236H52.3496Z" stroke="#3F5B91" stroke-width="2" stroke-miterlimit="10"/>
<path d="M131.54 678.773C131.54 672.126 136.952 666.712 143.597 666.712H161.38V654.48H143.597C130.207 654.48 119.311 665.379 119.311 678.773V729.801H131.54V678.773Z" stroke="#3F5B91" stroke-width="2" stroke-miterlimit="10"/>
</mask>
<g mask="url(#mask0_2086_8385)">
<rect x="-284" width="1920" height="1080" fill="#3F5B91"/>
</g>
</svg>
