<svg width="566" height="29" viewBox="0 0 566 29" fill="none" xmlns="http://www.w3.org/2000/svg">
<path d="M0.5 0V17" stroke="#A2A2A2"/>
<path d="M5.5 0V17" stroke="#A2A2A2"/>
<path d="M10.5 0V17" stroke="#A2A2A2"/>
<path d="M15.5 0V17" stroke="#A2A2A2"/>
<path d="M20.5 0L20.5 29" stroke="#A2A2A2"/>
<path d="M25.5 0L25.5 29" stroke="#A2A2A2"/>
<path d="M30.5 0V17" stroke="#A2A2A2"/>
<path d="M35.5 0V17" stroke="#A2A2A2"/>
<path d="M40.5 0V17" stroke="#A2A2A2"/>
<path d="M45.5 0V17" stroke="#A2A2A2"/>
<path d="M50.5 0V17" stroke="#A2A2A2"/>
<path d="M55.5 0L55.5 29" stroke="#A2A2A2"/>
<path d="M60.5 0V17" stroke="#A2A2A2"/>
<path d="M65.5 0V17" stroke="#A2A2A2"/>
<path d="M70.5 0V17" stroke="#A2A2A2"/>
<path d="M75.5 0V17" stroke="#A2A2A2"/>
<path d="M80.5 0V17" stroke="#A2A2A2"/>
<path d="M85.5 0L85.5 29" stroke="#A2A2A2"/>
<path d="M90.5 0V17" stroke="#A2A2A2"/>
<path d="M95.5 0V17" stroke="#A2A2A2"/>
<path d="M100.5 0V17" stroke="#A2A2A2"/>
<path d="M105.5 0V17" stroke="#A2A2A2"/>
<path d="M110.5 0V17" stroke="#A2A2A2"/>
<path d="M115.5 0L115.5 29" stroke="#A2A2A2"/>
<path d="M120.5 0V17" stroke="#A2A2A2"/>
<path d="M125.5 0V17" stroke="#A2A2A2"/>
<path d="M130.5 0V17" stroke="#A2A2A2"/>
<path d="M135.5 0V17" stroke="#A2A2A2"/>
<path d="M140.5 0V17" stroke="#A2A2A2"/>
<path d="M145.5 0L145.5 29" stroke="#A2A2A2"/>
<path d="M150.5 0V17" stroke="#A2A2A2"/>
<path d="M155.5 0V17" stroke="#A2A2A2"/>
<path d="M160.5 0V17" stroke="#A2A2A2"/>
<path d="M165.5 0V17" stroke="#A2A2A2"/>
<path d="M170.5 0V17" stroke="#A2A2A2"/>
<path d="M175.5 0L175.5 29" stroke="#A2A2A2"/>
<path d="M180.5 0V17" stroke="#A2A2A2"/>
<path d="M185.5 0V17" stroke="#A2A2A2"/>
<path d="M190.5 0V17" stroke="#A2A2A2"/>
<path d="M195.5 0V17" stroke="#A2A2A2"/>
<path d="M200.5 0V17" stroke="#A2A2A2"/>
<path d="M205.5 0L205.5 29" stroke="#A2A2A2"/>
<path d="M210.5 0V17" stroke="#A2A2A2"/>
<path d="M215.5 0V17" stroke="#A2A2A2"/>
<path d="M220.5 0V17" stroke="#A2A2A2"/>
<path d="M225.5 0V17" stroke="#A2A2A2"/>
<path d="M230.5 0V17" stroke="#A2A2A2"/>
<path d="M235.5 0L235.5 29" stroke="#A2A2A2"/>
<path d="M240.5 0V17" stroke="#A2A2A2"/>
<path d="M245.5 0V17" stroke="#A2A2A2"/>
<path d="M250.5 0V17" stroke="#A2A2A2"/>
<path d="M255.5 0V17" stroke="#A2A2A2"/>
<path d="M260.5 0V17" stroke="#A2A2A2"/>
<path d="M265.5 0L265.5 29" stroke="#A2A2A2"/>
<path d="M270.5 0V17" stroke="#A2A2A2"/>
<path d="M275.5 0V17" stroke="#A2A2A2"/>
<path d="M280.5 0V17" stroke="#A2A2A2"/>
<path d="M285.5 0V17" stroke="#A2A2A2"/>
<path d="M290.5 0V17" stroke="#A2A2A2"/>
<path d="M295.5 0L295.5 29" stroke="#A2A2A2"/>
<path d="M300.5 0V17" stroke="#A2A2A2"/>
<path d="M305.5 0V17" stroke="#A2A2A2"/>
<path d="M310.5 0V17" stroke="#A2A2A2"/>
<path d="M315.5 0V17" stroke="#A2A2A2"/>
<path d="M320.5 0V17" stroke="#A2A2A2"/>
<path d="M325.5 0L325.5 29" stroke="#A2A2A2"/>
<path d="M330.5 0V17" stroke="#A2A2A2"/>
<path d="M335.5 0V17" stroke="#A2A2A2"/>
<path d="M340.5 0V17" stroke="#A2A2A2"/>
<path d="M345.5 0V17" stroke="#A2A2A2"/>
<path d="M350.5 0V17" stroke="#A2A2A2"/>
<path d="M355.5 0L355.5 29" stroke="#A2A2A2"/>
<path d="M360.5 0V17" stroke="#A2A2A2"/>
<path d="M365.5 0V17" stroke="#A2A2A2"/>
<path d="M370.5 0V17" stroke="#A2A2A2"/>
<path d="M375.5 0V17" stroke="#A2A2A2"/>
<path d="M380.5 0V17" stroke="#A2A2A2"/>
<path d="M385.5 0L385.5 29" stroke="#A2A2A2"/>
<path d="M390.5 0V17" stroke="#A2A2A2"/>
<path d="M395.5 0V17" stroke="#A2A2A2"/>
<path d="M400.5 0V17" stroke="#A2A2A2"/>
<path d="M405.5 0V17" stroke="#A2A2A2"/>
<path d="M410.5 0V17" stroke="#A2A2A2"/>
<path d="M415.5 0L415.5 29" stroke="#A2A2A2"/>
<path d="M420.5 0V17" stroke="#A2A2A2"/>
<path d="M425.5 0V17" stroke="#A2A2A2"/>
<path d="M430.5 0V17" stroke="#A2A2A2"/>
<path d="M435.5 0V17" stroke="#A2A2A2"/>
<path d="M440.5 0V17" stroke="#A2A2A2"/>
<path d="M445.5 0L445.5 29" stroke="#A2A2A2"/>
<path d="M450.5 0V17" stroke="#A2A2A2"/>
<path d="M455.5 0V17" stroke="#A2A2A2"/>
<path d="M460.5 0V17" stroke="#A2A2A2"/>
<path d="M465.5 0V17" stroke="#A2A2A2"/>
<path d="M470.5 0V17" stroke="#A2A2A2"/>
<path d="M475.5 0L475.5 29" stroke="#A2A2A2"/>
<path d="M480.5 0V17" stroke="#A2A2A2"/>
<path d="M485.5 0V17" stroke="#A2A2A2"/>
<path d="M490.5 0V17" stroke="#A2A2A2"/>
<path d="M495.5 0V17" stroke="#A2A2A2"/>
<path d="M500.5 0V17" stroke="#A2A2A2"/>
<path d="M505.5 0L505.5 29" stroke="#A2A2A2"/>
<path d="M510.5 0V17" stroke="#A2A2A2"/>
<path d="M515.5 0V17" stroke="#A2A2A2"/>
<path d="M520.5 0V17" stroke="#A2A2A2"/>
<path d="M525.5 0V17" stroke="#A2A2A2"/>
<path d="M530.5 0V17" stroke="#A2A2A2"/>
<path d="M535.5 0L535.5 29" stroke="#A2A2A2"/>
<path d="M540.5 0V17" stroke="#A2A2A2"/>
<path d="M545.5 0V17" stroke="#A2A2A2"/>
<path d="M550.5 0V17" stroke="#A2A2A2"/>
<path d="M555.5 0V17" stroke="#A2A2A2"/>
<path d="M560.5 0V17" stroke="#A2A2A2"/>
<path d="M565.5 0L565.5 29" stroke="#A2A2A2"/>
</svg>
